<svg width="20" height="20" viewBox="0 0 20 20" fill="none" xmlns="http://www.w3.org/2000/svg">
<path d="M3.33329 11.6673L4.6455 16.9161C4.6824 17.0638 4.70085 17.1376 4.72268 17.202C4.93593 17.8316 5.50289 18.2743 6.16539 18.3284C6.23321 18.334 6.30929 18.334 6.46145 18.334C6.65199 18.334 6.74726 18.334 6.82752 18.3262C7.62079 18.2493 8.24857 17.6215 8.32551 16.8282C8.33329 16.748 8.33329 16.6527 8.33329 16.4621V4.58399M15.4166 11.2507C17.0275 11.2507 18.3333 9.94482 18.3333 8.33399C18.3333 6.72316 17.0275 5.41732 15.4166 5.41732M8.54162 4.58399H5.41663C3.34556 4.58399 1.66662 6.26293 1.66663 8.33399C1.66663 10.4051 3.34556 12.084 5.41663 12.084H8.54163C10.0137 12.084 11.8143 12.8731 13.2035 13.6304C14.014 14.0722 14.4192 14.2931 14.6846 14.2605C14.9307 14.2304 15.1168 14.1199 15.2611 13.9182C15.4166 13.7008 15.4166 13.2657 15.4166 12.3954V4.27256C15.4166 3.40232 15.4166 2.9672 15.2611 2.74973C15.1168 2.54808 14.9307 2.43758 14.6846 2.40743C14.4192 2.37493 14.014 2.59582 13.2035 3.03762C11.8143 3.79492 10.0136 4.58399 8.54162 4.58399Z" stroke="#17B26A" stroke-width="1.6" stroke-linecap="round" stroke-linejoin="round"/>
</svg>
