<svg width="87" height="40" viewBox="0 0 87 40" fill="none" xmlns="http://www.w3.org/2000/svg">
<path d="M11.0376 3.1559C11.0376 2.33119 11.4021 1.61694 12.1311 1.01313C12.8601 0.409327 13.7326 0.107422 14.7488 0.107422C15.2716 0.107422 15.7649 0.188419 16.2325 0.354097C16.7001 0.519775 17.1051 0.740683 17.4475 1.01313C17.7899 1.28926 18.0587 1.60957 18.2501 1.98142C18.4416 2.35328 18.5373 2.74354 18.5373 3.1559C18.5373 3.56825 18.4416 3.95852 18.2501 4.33037C18.0587 4.70223 17.7899 5.02622 17.4475 5.29867C17.1051 5.5748 16.7001 5.79203 16.2325 5.9577C15.7649 6.12338 15.2716 6.20437 14.7488 6.20437C13.7326 6.20437 12.8601 5.90247 12.1311 5.29867C11.4021 4.69486 11.0376 3.98061 11.0376 3.1559ZM18.1654 29.16H15.4851C14.3585 29.16 13.3902 28.8802 12.5802 28.3169C11.7703 27.7536 11.3653 26.8 11.3653 25.4525V8.55701H14.5389C15.6361 8.55701 16.516 8.7779 17.175 9.21603C17.8341 9.65415 18.1654 10.4678 18.1654 11.646V29.16Z" fill="#C6B5F8"/>
<path d="M62.3942 12.9418C62.026 12.0619 61.5069 11.2998 60.8258 10.6481C59.9605 9.82341 58.7934 9.18647 57.3244 8.73361C55.8554 8.28076 53.9925 8.05249 51.7392 8.05249C49.6775 8.05249 47.9139 8.25868 46.4449 8.67103C45.8153 8.84775 45.2373 9.06865 44.7071 9.33005C44.2285 7.70641 43.4627 6.24476 42.395 4.94511C41.2537 3.5571 39.7147 2.43049 37.7781 1.56528C35.8415 0.700075 33.4153 0.265625 30.503 0.265625C29.5421 0.265625 28.5296 0.272993 27.4729 0.28772C26.4163 0.302447 25.3707 0.320855 24.3398 0.350309C23.3089 0.379763 22.3553 0.405535 21.4754 0.431308C20.5955 0.460761 19.8665 0.486534 19.2921 0.512306V29.1562C21.1072 29.182 22.7824 29.2114 24.3214 29.2372C24.9804 29.2372 25.6394 29.2446 26.2985 29.2593C26.9575 29.274 27.576 29.2851 28.1541 29.2998C28.7321 29.3145 29.2402 29.3219 29.6783 29.3219C30.1164 29.3219 30.4478 29.3219 30.6687 29.3219C33.7172 29.3219 36.206 28.9095 38.1279 28.0848C39.6006 27.4516 40.8303 26.6637 41.8206 25.7175C42.152 26.185 42.5275 26.6084 42.962 26.9877C43.9524 27.8529 45.2152 28.4861 46.7542 28.8838C48.2931 29.2814 50.1487 29.4802 52.3173 29.4802C53.801 29.4802 55.1522 29.3771 56.3782 29.1709C56.7906 29.101 57.1808 29.02 57.5527 28.9316L59.2868 23.2102C58.8082 23.6594 58.2449 24.0165 57.5932 24.2669C56.4924 24.6939 54.9976 24.9075 53.1015 24.9075C51.2054 24.9075 49.7364 24.5761 48.6908 23.9171C47.6452 23.2581 47.0708 22.1462 46.9604 20.5778H60.0821L62.3942 12.9418ZM38.2936 19.002C37.9622 20.0586 37.4946 20.9165 36.8908 21.5792C36.287 22.2382 35.5727 22.7279 34.748 23.0408C33.9233 23.3575 33.0434 23.571 32.1119 23.6815C31.1768 23.7919 30.1974 23.8398 29.1665 23.8251C28.1356 23.8103 27.1121 23.803 26.096 23.803V6.12327C27.1931 6.12327 28.2645 6.1159 29.3101 6.10118C30.3557 6.08645 31.3498 6.14168 32.2997 6.26686C33.2459 6.39204 34.1148 6.61661 34.8953 6.94797C35.6795 7.27565 36.357 7.77268 36.935 8.43171C37.513 9.09074 37.9585 9.94858 38.2751 11.0089C38.5918 12.0656 38.7611 13.3947 38.7906 14.9852C38.7869 16.6052 38.6212 17.9453 38.2936 19.002ZM46.9162 16.7083C47.0266 15.913 47.2254 15.2576 47.5126 14.7496C47.7998 14.2415 48.179 13.8439 48.6466 13.553C49.1142 13.2658 49.6554 13.067 50.2739 12.9566C50.8924 12.8461 51.5846 12.7909 52.3541 12.7909C53.1236 12.7909 53.8047 12.8461 54.3938 12.9566C54.9828 13.067 55.4873 13.2658 55.8996 13.553C56.312 13.8402 56.6359 14.2415 56.8679 14.7496C57.0998 15.2576 57.2582 15.9093 57.3428 16.7083H46.9162Z" fill="#C6B5F8"/>
<path d="M78.0659 24.9985H66.9397L65.7431 29.1183H58.8177L67.3078 1.09297C67.5545 0.872064 67.9521 0.673252 68.5044 0.496529C69.053 0.319805 69.6789 0.187264 70.3784 0.106266C71.0779 0.0252676 71.8143 -0.0115493 72.5837 0.0031776C73.3532 0.0179045 74.0749 0.113629 74.7486 0.290352C75.4224 0.470757 76.0188 0.743208 76.5416 1.11506C77.0644 1.48692 77.4326 1.97291 77.6535 2.57671L86.7216 29.1183H79.4686L78.0659 24.9985ZM68.3792 19.8477H76.4569L72.2929 7.48446L68.3792 19.8477Z" fill="#C6B5F8"/>
<path d="M10.0793 14.4492C2.53171 15.6274 -4.00337 22.468 2.95879 29.0142C8.86429 35.2252 19.869 35.7849 25.653 34.9749C25.1965 35.3946 19.8506 36.6648 14.1476 35.6302C14.744 36.3555 14.9465 37.368 14.5894 38.3069C14.4127 38.7708 14.1181 39.1573 13.7536 39.4482C21.7099 41.3406 32.9244 38.3216 34.4671 30.9213C23.4292 36.3813 -2.94303 29.8315 10.0793 14.4492Z" fill="#C6B5F8"/>
<path d="M10.5913 39.9975C12.0797 39.9975 13.2863 38.7909 13.2863 37.3025C13.2863 35.814 12.0797 34.6074 10.5913 34.6074C9.10285 34.6074 7.89624 35.814 7.89624 37.3025C7.89624 38.7909 9.10285 39.9975 10.5913 39.9975Z" fill="#C6B5F8"/>
</svg>
