<svg xmlns="http://www.w3.org/2000/svg" width="48" height="49" viewBox="0 0 48 49" fill="none">
<g clip-path="url(#clip0_43_1866)">
<path d="M24 48.12C37.2548 48.12 48 37.3748 48 24.12C48 10.8652 37.2548 0.119995 24 0.119995C10.7452 0.119995 0 10.8652 0 24.12C0 37.3748 10.7452 48.12 24 48.12Z" fill="#E6883C"/>
<path d="M35 15.1301C34.0424 15.8055 32.9821 16.3222 31.86 16.6601C31.2577 15.9676 30.4573 15.4767 29.567 15.254C28.6767 15.0312 27.7395 15.0873 26.8821 15.4145C26.0247 15.7418 25.2884 16.3245 24.773 17.0838C24.2575 17.8431 23.9877 18.7424 24 19.6601V20.6601C22.2426 20.7056 20.5013 20.3159 18.931 19.5255C17.3607 18.7351 16.0103 17.5687 15 16.1301C15 16.1301 11 25.1301 20 29.1301C17.9405 30.528 15.4872 31.229 13 31.1301C22 36.1301 33 31.1301 33 19.6301C32.9991 19.3515 32.9723 19.0737 32.92 18.8001C33.9406 17.7935 34.6608 16.5228 35 15.1301Z" stroke="#202020" stroke-width="1.5" stroke-linecap="round" stroke-linejoin="round"/>
</g>
<defs>
<clipPath id="clip0_43_1866">
<rect width="48" height="48" fill="white" transform="translate(0 0.119995)"/>
</clipPath>
</defs>
</svg>