<svg xmlns="http://www.w3.org/2000/svg" width="48" height="49" viewBox="0 0 48 49" fill="none">
<g clip-path="url(#clip0_43_1880)">
<path d="M24 48.12C37.2548 48.12 48 37.3748 48 24.12C48 10.8652 37.2548 0.119995 24 0.119995C10.7452 0.119995 0 10.8652 0 24.12C0 37.3748 10.7452 48.12 24 48.12Z" fill="#E6883C"/>
<path d="M34.5406 18.54C34.4218 18.0654 34.1799 17.6306 33.8392 17.2794C33.4986 16.9282 33.0713 16.6732 32.6006 16.54C30.8806 16.12 24.0006 16.12 24.0006 16.12C24.0006 16.12 17.1206 16.12 15.4006 16.58C14.9298 16.7132 14.5025 16.9682 14.1619 17.3194C13.8213 17.6706 13.5794 18.1054 13.4606 18.58C13.1458 20.3256 12.9918 22.0963 13.0006 23.87C12.9894 25.657 13.1433 27.4413 13.4606 29.2C13.5915 29.6598 13.8389 30.0781 14.1787 30.4145C14.5186 30.7508 14.9394 30.9938 15.4006 31.12C17.1206 31.58 24.0006 31.58 24.0006 31.58C24.0006 31.58 30.8806 31.58 32.6006 31.12C33.0713 30.9868 33.4986 30.7318 33.8392 30.3806C34.1799 30.0294 34.4218 29.5946 34.5406 29.12C34.8529 27.3876 35.0069 25.6303 35.0006 23.87C35.0118 22.083 34.8578 20.2987 34.5406 18.54Z" stroke="#202020" stroke-width="1.5" stroke-linecap="round" stroke-linejoin="round"/>
<path d="M21.7505 27.14L27.5005 23.87L21.7505 20.6V27.14Z" stroke="#202020" stroke-width="1.5" stroke-linecap="round" stroke-linejoin="round"/>
</g>
<defs>
<clipPath id="clip0_43_1880">
<rect width="48" height="48" fill="white" transform="translate(0 0.119995)"/>
</clipPath>
</defs>
</svg>