<svg width="20" height="21" viewBox="0 0 20 21" fill="none" xmlns="http://www.w3.org/2000/svg">
<path d="M4.16666 12.722C3.39009 12.722 3.0018 12.722 2.69552 12.5951C2.28714 12.426 1.96268 12.1015 1.79352 11.6931C1.66666 11.3869 1.66666 10.9986 1.66666 10.222V4.55534C1.66666 3.62192 1.66666 3.15521 1.84831 2.79869C2.0081 2.48508 2.26307 2.23012 2.57667 2.07033C2.93319 1.88867 3.3999 1.88867 4.33332 1.88867H9.99999C10.7766 1.88867 11.1648 1.88867 11.4711 2.01554C11.8795 2.1847 12.204 2.50915 12.3731 2.91753C12.5 3.22382 12.5 3.6121 12.5 4.38867M10.1667 18.5553H15.6667C16.6001 18.5553 17.0668 18.5553 17.4233 18.3737C17.7369 18.2139 17.9919 17.9589 18.1517 17.6453C18.3333 17.2888 18.3333 16.8221 18.3333 15.8887V10.3887C18.3333 9.45525 18.3333 8.98854 18.1517 8.63202C17.9919 8.31842 17.7369 8.06345 17.4233 7.90366C17.0668 7.72201 16.6001 7.72201 15.6667 7.72201H10.1667C9.23324 7.72201 8.76653 7.72201 8.41001 7.90366C8.0964 8.06345 7.84143 8.31842 7.68165 8.63202C7.49999 8.98854 7.49999 9.45525 7.49999 10.3887V15.8887C7.49999 16.8221 7.49999 17.2888 7.68165 17.6453C7.84143 17.9589 8.0964 18.2139 8.41001 18.3737C8.76653 18.5553 9.23324 18.5553 10.1667 18.5553Z" stroke="#344054" stroke-width="1.66667" stroke-linecap="round" stroke-linejoin="round"/>
</svg>
