<svg width="20" height="21" viewBox="0 0 20 21" fill="none" xmlns="http://www.w3.org/2000/svg">
<g clip-path="url(#clip0_798_858)">
<path d="M20 10.2227C20 4.69981 15.5229 0.222656 10 0.222656C4.47715 0.222656 0 4.69981 0 10.2227C0 15.2139 3.65684 19.351 8.4375 20.1012V13.1133H5.89844V10.2227H8.4375V8.01953C8.4375 5.51328 9.93047 4.12891 12.2146 4.12891C13.3084 4.12891 14.4531 4.32422 14.4531 4.32422V6.78516H13.1922C11.95 6.78516 11.5625 7.55606 11.5625 8.34766V10.2227H14.3359L13.8926 13.1133H11.5625V20.1012C16.3432 19.351 20 15.2139 20 10.2227Z" fill="#98A2B3"/>
<path d="M13.8926 13.1133L14.3359 10.2227H11.5625V8.34766C11.5625 7.55684 11.95 6.78516 13.1922 6.78516H14.4531V4.32422C14.4531 4.32422 13.3088 4.12891 12.2146 4.12891C9.93047 4.12891 8.4375 5.51328 8.4375 8.01953V10.2227H5.89844V13.1133H8.4375V20.1012C9.47287 20.2632 10.5271 20.2632 11.5625 20.1012V13.1133H13.8926Z" fill="white"/>
</g>
<defs>
<clipPath id="clip0_798_858">
<rect width="20" height="20" fill="white" transform="translate(0 0.222656)"/>
</clipPath>
</defs>
</svg>
