<svg width="20" height="21" viewBox="0 0 20 21" fill="none" xmlns="http://www.w3.org/2000/svg">
<g clip-path="url(#clip0_798_2029)">
<path d="M18.5236 0.222656H1.47639C1.08483 0.222656 0.709301 0.378204 0.432425 0.655081C0.155548 0.931957 0 1.30748 0 1.69905V18.7463C0 19.1378 0.155548 19.5134 0.432425 19.7902C0.709301 20.0671 1.08483 20.2227 1.47639 20.2227H18.5236C18.9152 20.2227 19.2907 20.0671 19.5676 19.7902C19.8445 19.5134 20 19.1378 20 18.7463V1.69905C20 1.30748 19.8445 0.931957 19.5676 0.655081C19.2907 0.378204 18.9152 0.222656 18.5236 0.222656ZM5.96111 17.2602H2.95417V7.70877H5.96111V17.2602ZM4.45556 6.38516C4.11447 6.38324 3.7816 6.28032 3.49895 6.0894C3.21629 5.89847 2.99653 5.6281 2.8674 5.3124C2.73826 4.9967 2.70554 4.64982 2.77336 4.31554C2.84118 3.98125 3.0065 3.67455 3.24846 3.43414C3.49042 3.19373 3.79818 3.03038 4.13289 2.96471C4.4676 2.89903 4.81426 2.93398 5.12913 3.06514C5.44399 3.1963 5.71295 3.4178 5.90205 3.70167C6.09116 3.98554 6.19194 4.31907 6.19167 4.66016C6.19488 4.88852 6.15209 5.11519 6.06584 5.32666C5.97959 5.53813 5.85165 5.73007 5.68964 5.89105C5.52763 6.05202 5.33487 6.17872 5.12285 6.26362C4.91083 6.34851 4.68389 6.38984 4.45556 6.38516ZM17.0444 17.2685H14.0389V12.0504C14.0389 10.5115 13.3847 10.0365 12.5403 10.0365C11.6486 10.0365 10.7736 10.7088 10.7736 12.0893V17.2685H7.76667V7.71571H10.6583V9.03932H10.6972C10.9875 8.45182 12.0042 7.44766 13.5556 7.44766C15.2333 7.44766 17.0458 8.44349 17.0458 11.3602L17.0444 17.2685Z" fill="#98A2B3"/>
</g>
<defs>
<clipPath id="clip0_798_2029">
<rect width="20" height="20" fill="white" transform="translate(0 0.222656)"/>
</clipPath>
</defs>
</svg>
