<svg xmlns="http://www.w3.org/2000/svg" width="105" height="48" viewBox="0 0 105 48" fill="none">
<path d="M13.2438 3.78562C13.2438 2.79597 13.6812 1.93886 14.556 1.21429C15.4308 0.489728 16.4778 0.127441 17.6972 0.127441C18.3246 0.127441 18.9166 0.224639 19.4777 0.423453C20.0388 0.622267 20.5248 0.887356 20.9357 1.21429C21.3466 1.54565 21.6691 1.93002 21.8988 2.37625C22.1285 2.82247 22.2434 3.29079 22.2434 3.78562C22.2434 4.28045 22.1285 4.74876 21.8988 5.19499C21.6691 5.64122 21.3466 6.03001 20.9357 6.35695C20.5248 6.68831 20.0388 6.94898 19.4777 7.14779C18.9166 7.34661 18.3246 7.4438 17.6972 7.4438C16.4778 7.4438 15.4308 7.08152 14.556 6.35695C13.6812 5.63238 13.2438 4.77527 13.2438 3.78562ZM21.7972 34.9906H18.5808C17.2289 34.9906 16.067 34.6548 15.095 33.9788C14.123 33.3029 13.637 32.1586 13.637 30.5416V10.267H17.4454C18.762 10.267 19.8179 10.532 20.6087 11.0578C21.3996 11.5835 21.7972 12.5599 21.7972 13.9737V34.9906Z" fill="white"/>
<path d="M74.8715 15.5289C74.4297 14.4729 73.8067 13.5584 72.9894 12.7764C71.9512 11.7868 70.5506 11.0224 68.7878 10.479C67.025 9.93557 64.7895 9.66164 62.0856 9.66164C59.6115 9.66164 57.4952 9.90906 55.7324 10.4039C54.9769 10.616 54.2833 10.881 53.6471 11.1947C53.0727 9.24634 52.1538 7.49236 50.8725 5.93278C49.5029 4.26716 47.6562 2.91523 45.3323 1.87697C43.0084 0.838724 40.0969 0.317383 36.6022 0.317383C35.449 0.317383 34.2341 0.326225 32.9661 0.343897C31.6981 0.361569 30.4434 0.383659 29.2063 0.419004C27.9693 0.454348 26.825 0.485276 25.7691 0.516202C24.7131 0.551547 23.8383 0.582474 23.1491 0.613401V34.9861C25.3272 35.0171 27.3375 35.0524 29.1842 35.0833C29.975 35.0833 30.7659 35.0922 31.5567 35.1098C32.3476 35.1275 33.0898 35.1408 33.7834 35.1584C34.4771 35.1761 35.0868 35.185 35.6125 35.185C36.1383 35.185 36.5359 35.185 36.801 35.185C40.4591 35.185 43.4458 34.6901 45.752 33.7005C47.5192 32.9406 48.9948 31.9951 50.1833 30.8596C50.5809 31.4207 51.0316 31.9288 51.5529 32.3839C52.7414 33.4221 54.2568 34.182 56.1035 34.6592C57.9503 35.1364 60.177 35.3749 62.7792 35.3749C64.5597 35.3749 66.1812 35.2512 67.6524 35.0038C68.1472 34.9199 68.6155 34.8227 69.0617 34.7166L71.1426 27.8509C70.5683 28.3899 69.8923 28.8185 69.1103 29.1189C67.7893 29.6314 65.9956 29.8877 63.7203 29.8877C61.445 29.8877 59.6822 29.49 58.4274 28.6992C57.1727 27.9084 56.4835 26.5741 56.3509 24.692H72.097L74.8715 15.5289ZM45.9508 22.8011C45.5532 24.069 44.9921 25.0985 44.2675 25.8937C43.543 26.6846 42.6858 27.2722 41.6962 27.6477C40.7065 28.0277 39.6506 28.2839 38.5329 28.4164C37.4107 28.549 36.2355 28.6064 34.9984 28.5888C33.7613 28.5711 32.5331 28.5622 31.3137 28.5622V7.34657C32.6303 7.34657 33.916 7.33773 35.1707 7.32006C36.4254 7.30239 37.6183 7.36866 38.7582 7.51888C39.8936 7.66909 40.9363 7.93859 41.8729 8.33621C42.814 8.72942 43.6269 9.32587 44.3205 10.1167C45.0142 10.9075 45.5488 11.937 45.9287 13.2094C46.3087 14.4774 46.5119 16.0723 46.5472 17.9809C46.5428 19.9249 46.344 21.5331 45.9508 22.8011ZM56.2979 20.0486C56.4305 19.0943 56.6691 18.3078 57.0137 17.6981C57.3583 17.0885 57.8133 16.6113 58.3744 16.2623C58.9355 15.9177 59.585 15.6791 60.3272 15.5465C61.0695 15.414 61.9 15.3477 62.8234 15.3477C63.7468 15.3477 64.5641 15.414 65.271 15.5465C65.9779 15.6791 66.5832 15.9177 67.078 16.2623C67.5729 16.6069 67.9616 17.0885 68.24 17.6981C68.5183 18.3078 68.7083 19.0899 68.8099 20.0486H56.2979Z" fill="white"/>
<path d="M93.6792 29.9982H80.3278L78.892 34.9421H70.5816L80.7696 1.31156C81.0656 1.04648 81.5428 0.807904 82.2055 0.595836C82.8638 0.383767 83.6149 0.224717 84.4543 0.127519C85.2937 0.0303211 86.1773 -0.0138592 87.1007 0.00381313C88.0241 0.0214855 88.89 0.136355 89.6986 0.348424C90.5071 0.56491 91.2228 0.891851 91.8502 1.33808C92.4775 1.78431 92.9193 2.36749 93.1844 3.09206L104.066 34.9421H95.3625L93.6792 29.9982ZM82.0553 23.8173H91.7485L86.7517 8.98138L82.0553 23.8173Z" fill="white"/>
<path d="M12.0951 17.3401C3.03806 18.7539 -4.80402 26.9627 3.55056 34.8181C10.6371 42.2714 23.8428 42.9429 30.7835 41.9709C30.2357 42.4746 23.8207 43.9988 16.9771 42.7574C17.6928 43.6277 17.9358 44.8427 17.5072 45.9693C17.2952 46.526 16.9417 46.9899 16.5043 47.3389C26.0518 49.6098 39.5092 45.987 41.3604 37.1066C28.115 43.6587 -3.53161 35.7989 12.0951 17.3401Z" fill="white"/>
<path d="M12.7093 47.9976C14.4954 47.9976 15.9433 46.5497 15.9433 44.7636C15.9433 42.9775 14.4954 41.5295 12.7093 41.5295C10.9231 41.5295 9.47522 42.9775 9.47522 44.7636C9.47522 46.5497 10.9231 47.9976 12.7093 47.9976Z" fill="white"/>
</svg>