<svg xmlns="http://www.w3.org/2000/svg" width="185" height="60" viewBox="0 0 185 60" fill="none">
  <path d="M48.6152 43.2352C50.2115 43.2352 51.5055 41.9411 51.5055 40.3449C51.5055 38.7486 50.2115 37.4546 48.6152 37.4546C47.019 37.4546 45.725 38.7486 45.725 40.3449C45.725 41.9411 47.019 43.2352 48.6152 43.2352Z" fill="white"/>
  <path d="M48.9675 35.6413C49.1828 35.5956 49.4047 35.5695 49.633 35.5695C50.9901 35.5695 52.1514 36.3981 52.6538 37.5725C57.658 30.598 59.413 19.0173 53.1431 14.3589C53.4889 27.5185 35.2925 50.171 26.2106 30.6306C23.9662 38.4859 27.6721 47.894 37.1454 44.0773C45.8228 41.1348 51.3097 30.7089 53.117 24.7326C53.3127 25.3459 52.2362 30.7154 48.9675 35.6413Z" fill="white"/>
  <path d="M40.3163 10.7967C41.9125 10.7967 43.2066 9.50265 43.2066 7.90639C43.2066 6.31013 41.9125 5.01611 40.3163 5.01611C38.72 5.01611 37.426 6.31013 37.426 7.90639C37.426 9.50265 38.72 10.7967 40.3163 10.7967Z" fill="white"/>
  <path d="M43.9895 20.0221C41.047 11.3448 30.6211 5.85781 24.6448 4.05056C25.2646 3.85483 30.8626 4.98354 35.8733 8.42187C35.7493 8.07608 35.684 7.71071 35.684 7.32578C35.684 6.08615 36.3756 5.00312 37.3934 4.44855C30.4058 -0.503426 18.9035 -2.21933 14.2646 4.02446C27.4242 3.67867 50.0767 21.8751 30.5363 30.9569C38.3916 33.2078 47.8062 29.502 43.9895 20.0221Z" fill="white"/>
  <path d="M8.00132 20.4529C9.59758 20.4529 10.8916 19.1589 10.8916 17.5626C10.8916 15.9664 9.59758 14.6724 8.00132 14.6724C6.40506 14.6724 5.11108 15.9664 5.11108 17.5626C5.11108 19.1589 6.40506 20.4529 8.00132 20.4529Z" fill="white"/>
  <path d="M20.0779 13.9479C11.4005 16.8903 5.91355 27.3163 4.10631 33.2925C3.91058 32.6793 5.00667 27.2053 8.35366 22.2403C7.98177 22.3904 7.57729 22.4686 7.1532 22.4686C5.93968 22.4686 4.87622 21.8032 4.3086 20.818C-0.493314 27.8251 -2.07871 39.0862 4.08026 43.6663C3.73447 30.5067 21.9308 7.85413 31.0127 27.3945C33.2636 19.5458 29.5577 10.1311 20.0779 13.9479Z" fill="white"/>
  <path d="M11.9615 50.1192C13.5577 50.1192 14.8517 48.8252 14.8517 47.2289C14.8517 45.6326 13.5577 44.3386 11.9615 44.3386C10.3652 44.3386 9.07117 45.6326 9.07117 47.2289C9.07117 48.8252 10.3652 50.1192 11.9615 50.1192Z" fill="white"/>
  <path d="M26.9543 27.89C19.7906 23.9689 9.78883 25.5021 11.4199 35.5887C12.3725 44.7032 21.3368 52.3497 26.7651 55.4358C26.1192 55.488 20.9454 53.1718 16.822 48.7483C16.6524 50.2685 15.4323 51.482 13.9056 51.6386C19.4644 58.3391 30.7971 62.9714 36.8844 57.7519C23.9727 55.1748 5.89375 32.4375 26.9543 27.89Z" fill="white"/>
  <path d="M66.2766 17.6933V12.2324H71.7375V17.6933H66.2766ZM66.2766 41.0504V19.37H71.7375V41.0504H66.2766Z" fill="white"/>
  <path d="M83.7033 17.5625C85.1125 17.5625 86.4305 17.83 87.6571 18.365C88.8837 18.9 89.9601 19.6242 90.8735 20.5441C91.7869 21.4575 92.5112 22.534 93.0331 23.7606C93.5551 24.9872 93.8225 26.3051 93.8225 27.7144V40.9849H88.3617V27.7144C88.3617 27.0685 88.2377 26.4552 87.9898 25.8876C87.7419 25.3199 87.4157 24.8176 87.0046 24.3935C86.5936 23.9694 86.0978 23.6367 85.5301 23.3887C84.9625 23.1408 84.3492 23.0234 83.7033 23.0234C83.0574 23.0234 82.4441 23.1473 81.8765 23.3887C81.3089 23.6367 80.8065 23.9694 80.3824 24.3935C79.9583 24.8176 79.6256 25.3134 79.3776 25.8876C79.1297 26.4552 79.0058 27.0685 79.0058 27.7144V28.4842V40.9849H73.5449V28.4842V27.7144V21.4836H70.4263L72.7359 17.5625H73.5384H76.657H78.9993V18.7369C79.7169 18.3585 80.4607 18.0649 81.2436 17.8626C82.0396 17.6604 82.8551 17.5625 83.7033 17.5625Z" fill="white"/>
  <path d="M104.712 17.5625C106.121 17.5625 107.439 17.83 108.665 18.365C109.892 18.9 110.969 19.6242 111.882 20.5441C112.795 21.4575 113.519 22.534 114.041 23.7606C114.563 24.9872 114.831 26.3051 114.831 27.7144V40.9849H109.37V27.7144C109.37 27.0685 109.246 26.4552 108.998 25.8876C108.75 25.3199 108.424 24.8176 108.013 24.3935C107.602 23.9694 107.106 23.6367 106.538 23.3887C105.971 23.1408 105.358 23.0234 104.712 23.0234C104.066 23.0234 103.452 23.1473 102.885 23.3887C102.317 23.6367 101.815 23.9694 101.391 24.3935C100.967 24.8176 100.634 25.3134 100.386 25.8876C100.138 26.4552 100.014 27.0685 100.014 27.7144V28.4842V40.9849H94.5532V28.4842V27.7144V21.4836H91.4346L93.7442 17.5625H94.5467H97.6653H100.008V18.7369C100.725 18.3585 101.469 18.0649 102.252 17.8626C103.048 17.6604 103.864 17.5625 104.712 17.5625Z" fill="white"/>
  <path d="M139.03 29.3194C139.03 30.8852 138.71 32.3728 138.077 33.7951C137.438 35.2108 136.583 36.457 135.513 37.5335C134.443 38.6035 133.19 39.4582 131.762 40.0976C130.333 40.737 128.832 41.0501 127.273 41.0501C125.511 41.0501 123.906 40.7304 122.464 40.0976C121.023 39.4582 119.789 38.6035 118.759 37.5335C117.734 36.4635 116.938 35.2174 116.377 33.7951C115.816 32.3793 115.542 30.8852 115.542 29.3194C115.542 27.7535 115.823 26.2595 116.377 24.8306C116.938 23.4018 117.728 22.1491 118.759 21.0791C119.789 20.0091 121.023 19.1544 122.464 18.515C123.906 17.8757 125.511 17.5625 127.273 17.5625C128.839 17.5625 130.333 17.8822 131.762 18.515C133.19 19.1544 134.443 20.0091 135.513 21.0791C136.583 22.1491 137.438 23.4018 138.077 24.8306C138.71 26.2595 139.03 27.76 139.03 29.3194ZM133.569 29.3194C133.569 28.5169 133.393 27.7405 133.034 26.9902C132.675 26.2399 132.199 25.5744 131.612 24.9807C131.018 24.387 130.352 23.9172 129.602 23.5584C128.852 23.1995 128.075 23.0234 127.273 23.0234C126.288 23.0234 125.413 23.1995 124.644 23.5584C123.874 23.9172 123.221 24.3935 122.686 24.9807C122.151 25.5744 121.734 26.2464 121.447 26.9902C121.153 27.7405 121.01 28.5169 121.01 29.3194C121.01 30.1023 121.153 30.8722 121.447 31.629C121.734 32.3858 122.151 33.0578 122.686 33.6385C123.221 34.2192 123.874 34.6889 124.644 35.0477C125.413 35.4066 126.288 35.5827 127.273 35.5827C128.075 35.5827 128.852 35.4066 129.602 35.0477C130.352 34.6889 131.018 34.2192 131.612 33.6385C132.205 33.0578 132.682 32.3858 133.034 31.629C133.386 30.8722 133.569 30.1023 133.569 29.3194Z" fill="white"/>
  <path d="M142.174 40.9462V21.4449H139.023L141.404 17.5564H147.57V33.1365L159.262 17.5564H165.525L149.175 40.9462H142.174Z" fill="white"/>
  <path d="M185 29.3521V41.0111H179.539V39.2039C178.626 39.7845 177.641 40.2282 176.59 40.5413C175.54 40.8545 174.444 41.0111 173.308 41.0111C171.697 41.0111 170.183 40.7044 168.748 40.0912C167.319 39.4779 166.073 38.6428 165.01 37.5923C163.946 36.5419 163.111 35.3023 162.498 33.8735C161.884 32.4446 161.578 30.9244 161.578 29.3195C161.578 27.7079 161.884 26.1943 162.498 24.7655C163.111 23.3366 163.953 22.0905 165.01 21.027C166.073 19.9636 167.319 19.1284 168.748 18.5151C170.177 17.9019 171.697 17.5952 173.308 17.5952C174.913 17.5952 176.434 17.9019 177.863 18.5151C179.291 19.1284 180.531 19.9701 181.581 21.027C182.632 22.0905 183.46 23.3366 184.08 24.7655C184.693 26.1943 185 27.7145 185 29.3195V29.3521ZM173.308 35.5567C174.157 35.5567 174.959 35.3936 175.723 35.0739C176.479 34.7477 177.145 34.3041 177.719 33.7365C178.287 33.1688 178.737 32.5099 179.056 31.7596C179.383 31.0093 179.539 30.2003 179.539 29.3325C179.539 28.4648 179.376 27.6427 179.056 26.8859C178.73 26.1291 178.287 25.4636 177.719 24.8894C177.151 24.3218 176.492 23.8716 175.742 23.5519C174.992 23.2257 174.183 23.0691 173.315 23.0691C172.441 23.0691 171.632 23.2322 170.888 23.5519C170.138 23.8782 169.479 24.3218 168.911 24.8894C168.343 25.4571 167.893 26.1225 167.574 26.8859C167.247 27.6427 167.091 28.4583 167.091 29.3325C167.091 30.1807 167.254 30.9832 167.574 31.7465C167.9 32.5033 168.343 33.1688 168.911 33.743C169.479 34.3106 170.138 34.7608 170.888 35.0805C171.625 35.3936 172.434 35.5567 173.308 35.5567Z" fill="white"/>
  <path d="M108.182 55.8669L107.093 53.2898H101.71L100.621 55.8669H98.709L103.576 44.8081H105.227L110.094 55.8669H108.182ZM104.398 46.9677L102.402 51.6717H106.395L104.398 46.9677Z" fill="white"/>
  <path d="M118.798 55.8669L114.85 51.4564H113.252V55.8669H111.484V44.8081H116.684C117.819 44.8081 118.732 45.1147 119.43 45.7215C120.128 46.3348 120.481 47.1373 120.481 48.142C120.481 49.0881 120.168 49.8645 119.535 50.4582C118.902 51.0584 118.06 51.3846 117.003 51.4434L120.996 55.8669H118.798ZM116.684 49.8579C117.29 49.8579 117.78 49.7014 118.152 49.3882C118.524 49.075 118.713 48.6575 118.713 48.142C118.713 47.6266 118.524 47.2091 118.152 46.8894C117.78 46.5697 117.29 46.4131 116.684 46.4131H113.252V49.8645H116.684V49.8579Z" fill="white"/>
  <path d="M130.809 55.8669H122.575V44.8081H130.796V46.4066H124.343V49.5252H130.3V51.1106H124.343V54.2619H130.815V55.8669H130.809Z" fill="white"/>
  <path d="M139.825 55.8475C139.297 56.0106 138.736 56.0954 138.142 56.0954C136.524 56.0954 135.161 55.5408 134.051 54.4252C132.942 53.316 132.381 51.9524 132.381 50.3475C132.381 48.7294 132.936 47.3593 134.051 46.2436C135.161 45.128 136.531 44.5669 138.142 44.5669C139.754 44.5669 141.13 45.128 142.246 46.2502C143.362 47.3724 143.923 48.7359 143.923 50.3409C143.923 51.287 143.714 52.1677 143.296 52.9833C142.879 53.7988 142.305 54.4643 141.58 54.9797L144.503 58.6595H142.044L139.825 55.8475ZM135.311 53.2573C136.074 54.0402 137.02 54.4317 138.142 54.4317C139.264 54.4317 140.21 54.0402 140.98 53.2573C141.75 52.4744 142.135 51.5088 142.135 50.354C142.135 49.1861 141.75 48.214 140.98 47.4245C140.21 46.6351 139.264 46.2436 138.142 46.2436C137.02 46.2436 136.074 46.6351 135.311 47.4245C134.547 48.214 134.162 49.1861 134.162 50.354C134.162 51.5088 134.547 52.4744 135.311 53.2573Z" fill="white"/>
  <path d="M155.321 50.9801C155.321 52.5068 154.89 53.7464 154.035 54.6859C153.174 55.6255 152.052 56.0952 150.649 56.0952C149.22 56.0952 148.066 55.6255 147.191 54.6859C146.317 53.7464 145.88 52.5068 145.88 50.9801V44.8081H147.648V50.9801C147.648 52.0175 147.922 52.8396 148.477 53.4659C149.025 54.0857 149.755 54.3989 150.656 54.3989C151.524 54.3989 152.228 54.0857 152.763 53.4594C153.298 52.833 153.566 52.0045 153.566 50.9867V44.8146H155.334V50.9801H155.321Z" fill="white"/>
  <path d="M161.101 54.2619H163.528V55.8603H156.893V54.2619H159.32V46.4066H156.893V44.8081H163.528V46.4066H161.101V54.2619Z" fill="white"/>
  <path d="M170.196 44.8015C171.403 44.8015 172.369 45.1277 173.093 45.7867C173.811 46.4391 174.176 47.3003 174.176 48.3703C174.176 49.4468 173.817 50.3211 173.093 50.9801C172.375 51.639 171.41 51.9718 170.196 51.9718H166.98V55.8668H165.212V44.808H170.196V44.8015ZM170.196 50.3537C170.881 50.3537 171.416 50.1776 171.814 49.8187C172.212 49.4599 172.408 48.9771 172.408 48.3769C172.408 47.7962 172.212 47.3199 171.814 46.9545C171.416 46.5892 170.881 46.4065 170.196 46.4065H166.98V50.3537H170.196Z" fill="white"/>
  <path d="M183.004 55.8669L181.914 53.2898H176.531L175.442 55.8669H173.53L178.397 44.8081H180.048L184.915 55.8669H183.004ZM179.226 46.9677L177.23 51.6717H181.222L179.226 46.9677Z" fill="white"/>
</svg>