<svg width="209" height="287" viewBox="0 0 209 287" fill="none" xmlns="http://www.w3.org/2000/svg">
<g opacity="0.2">
<line x1="142.541" y1="8.92419" x2="145.529" y2="0.715311" stroke="#583AB3" stroke-width="1.40268"/>
<line x1="161.214" y1="8.54093" x2="165.582" y2="0.975587" stroke="#583AB3" stroke-width="1.40268"/>
<line x1="180.004" y1="8.16735" x2="185.619" y2="1.47541" stroke="#583AB3" stroke-width="1.40268"/>
<line x1="198.936" y1="7.53501" x2="205.628" y2="1.9198" stroke="#583AB3" stroke-width="1.40268"/>
<line x1="12.4199" y1="8.60952" x2="5.72797" y2="2.99432" stroke="#583AB3" stroke-width="1.40268"/>
<line x1="31.182" y1="9.06898" x2="25.5668" y2="2.37704" stroke="#583AB3" stroke-width="1.40268"/>
<line x1="49.8317" y1="9.24227" x2="45.4639" y2="1.67693" stroke="#583AB3" stroke-width="1.40268"/>
<line x1="68.4013" y1="9.40394" x2="65.4135" y2="1.19506" stroke="#583AB3" stroke-width="1.40268"/>
<line x1="86.9223" y1="9.55929" x2="85.4053" y2="0.956296" stroke="#583AB3" stroke-width="1.40268"/>
<line x1="105.429" y1="9.4375" x2="105.429" y2="0.701794" stroke="#583AB3" stroke-width="1.40268"/>
<line x1="123.956" y1="9.31571" x2="125.473" y2="0.712722" stroke="#583AB3" stroke-width="1.40268"/>
<line x1="122.887" y1="24.2123" x2="125.875" y2="16.0034" stroke="#583AB3" stroke-width="1.40268"/>
<line x1="141.557" y1="23.828" x2="145.925" y2="16.2627" stroke="#583AB3" stroke-width="1.40268"/>
<line x1="160.347" y1="23.4554" x2="165.962" y2="16.7635" stroke="#583AB3" stroke-width="1.40268"/>
<line x1="179.282" y1="22.8231" x2="185.974" y2="17.2079" stroke="#583AB3" stroke-width="1.40268"/>
<line x1="198.381" y1="21.9336" x2="205.947" y2="17.5658" stroke="#583AB3" stroke-width="1.40268"/>
<line x1="11.528" y1="24.3571" x2="5.91284" y2="17.6651" stroke="#583AB3" stroke-width="1.40268"/>
<line x1="30.1777" y1="24.5294" x2="25.8099" y2="16.964" stroke="#583AB3" stroke-width="1.40268"/>
<line x1="48.7445" y1="24.692" x2="45.7567" y2="16.4831" stroke="#583AB3" stroke-width="1.40268"/>
<line x1="67.2656" y1="24.8464" x2="65.7486" y2="16.2434" stroke="#583AB3" stroke-width="1.40268"/>
<line x1="85.772" y1="24.7246" x2="85.772" y2="15.9889" stroke="#583AB3" stroke-width="1.40268"/>
<line x1="104.302" y1="24.6028" x2="105.819" y2="15.9998" stroke="#583AB3" stroke-width="1.40268"/>
<line x1="103.23" y1="39.4994" x2="106.218" y2="31.2905" stroke="#583AB3" stroke-width="1.40268"/>
<line x1="121.903" y1="39.1151" x2="126.271" y2="31.5498" stroke="#583AB3" stroke-width="1.40268"/>
<line x1="140.693" y1="38.7425" x2="146.308" y2="32.0506" stroke="#583AB3" stroke-width="1.40268"/>
<line x1="159.628" y1="38.1102" x2="166.32" y2="32.495" stroke="#583AB3" stroke-width="1.40268"/>
<line x1="178.727" y1="37.2207" x2="186.293" y2="32.8529" stroke="#583AB3" stroke-width="1.40268"/>
<line x1="198.01" y1="36.6232" x2="206.219" y2="33.6354" stroke="#583AB3" stroke-width="1.40268"/>
<line x1="10.521" y1="39.8165" x2="6.15312" y2="32.2511" stroke="#583AB3" stroke-width="1.40268"/>
<line x1="29.0905" y1="39.9791" x2="26.1027" y2="31.7703" stroke="#583AB3" stroke-width="1.40268"/>
<line x1="47.6115" y1="40.1335" x2="46.0946" y2="31.5305" stroke="#583AB3" stroke-width="1.40268"/>
<line x1="66.1179" y1="40.0117" x2="66.1179" y2="31.276" stroke="#583AB3" stroke-width="1.40268"/>
<line x1="84.6457" y1="39.8899" x2="86.1626" y2="31.2869" stroke="#583AB3" stroke-width="1.40268"/>
<line x1="83.576" y1="54.7865" x2="86.5638" y2="46.5776" stroke="#583AB3" stroke-width="1.40268"/>
<line x1="102.246" y1="54.4032" x2="106.614" y2="46.8379" stroke="#583AB3" stroke-width="1.40268"/>
<line x1="121.036" y1="54.0297" x2="126.651" y2="47.3377" stroke="#583AB3" stroke-width="1.40268"/>
<line x1="139.971" y1="53.3973" x2="146.663" y2="47.7821" stroke="#583AB3" stroke-width="1.40268"/>
<line x1="159.073" y1="52.5079" x2="166.639" y2="48.14" stroke="#583AB3" stroke-width="1.40268"/>
<line x1="178.356" y1="51.9113" x2="186.565" y2="48.9235" stroke="#583AB3" stroke-width="1.40268"/>
<line x1="197.835" y1="51.0603" x2="206.438" y2="49.5434" stroke="#583AB3" stroke-width="1.40268"/>
<line x1="9.43373" y1="55.2662" x2="6.44594" y2="47.0574" stroke="#583AB3" stroke-width="1.40268"/>
<line x1="27.9548" y1="55.4216" x2="26.4378" y2="46.8186" stroke="#583AB3" stroke-width="1.40268"/>
<line x1="46.4612" y1="55.2998" x2="46.4612" y2="46.5641" stroke="#583AB3" stroke-width="1.40268"/>
<line x1="64.9917" y1="55.178" x2="66.5086" y2="46.575" stroke="#583AB3" stroke-width="1.40268"/>
<line x1="63.9193" y1="70.0746" x2="66.9071" y2="61.8657" stroke="#583AB3" stroke-width="1.40268"/>
<line x1="82.5921" y1="69.6903" x2="86.9599" y2="62.125" stroke="#583AB3" stroke-width="1.40268"/>
<line x1="101.382" y1="69.3177" x2="106.997" y2="62.6258" stroke="#583AB3" stroke-width="1.40268"/>
<line x1="120.317" y1="68.6844" x2="127.009" y2="63.0692" stroke="#583AB3" stroke-width="1.40268"/>
<line x1="139.416" y1="67.7959" x2="146.982" y2="63.4281" stroke="#583AB3" stroke-width="1.40268"/>
<line x1="158.699" y1="67.1974" x2="166.908" y2="64.2096" stroke="#583AB3" stroke-width="1.40268"/>
<line x1="178.178" y1="66.3474" x2="186.781" y2="64.8305" stroke="#583AB3" stroke-width="1.40268"/>
<line x1="8.30077" y1="70.7087" x2="6.78383" y2="62.1057" stroke="#583AB3" stroke-width="1.40268"/>
<line x1="26.8071" y1="70.5869" x2="26.8071" y2="61.8512" stroke="#583AB3" stroke-width="1.40268"/>
<line x1="45.3349" y1="70.4651" x2="46.8518" y2="61.8621" stroke="#583AB3" stroke-width="1.40268"/>
<line x1="208.775" y1="66.9211" x2="200.04" y2="66.9211" stroke="#583AB3" stroke-width="1.40268"/>
<line x1="44.2652" y1="85.3617" x2="47.253" y2="77.1528" stroke="#583AB3" stroke-width="1.40268"/>
<line x1="62.9353" y1="84.9784" x2="67.3032" y2="77.4131" stroke="#583AB3" stroke-width="1.40268"/>
<line x1="81.7253" y1="84.6048" x2="87.3405" y2="77.9129" stroke="#583AB3" stroke-width="1.40268"/>
<line x1="100.66" y1="83.9725" x2="107.352" y2="78.3573" stroke="#583AB3" stroke-width="1.40268"/>
<line x1="119.762" y1="83.083" x2="127.328" y2="78.7152" stroke="#583AB3" stroke-width="1.40268"/>
<line x1="139.045" y1="82.4855" x2="147.254" y2="79.4977" stroke="#583AB3" stroke-width="1.40268"/>
<line x1="158.524" y1="81.6345" x2="167.127" y2="80.1176" stroke="#583AB3" stroke-width="1.40268"/>
<line x1="7.1504" y1="85.875" x2="7.1504" y2="77.1393" stroke="#583AB3" stroke-width="1.40268"/>
<line x1="25.6809" y1="85.7532" x2="27.1978" y2="77.1502" stroke="#583AB3" stroke-width="1.40268"/>
<line x1="189.119" y1="82.2082" x2="180.383" y2="82.2082" stroke="#583AB3" stroke-width="1.40268"/>
<line x1="208.555" y1="83.0159" x2="199.952" y2="81.4989" stroke="#583AB3" stroke-width="1.40268"/>
<line x1="24.6085" y1="100.65" x2="27.5963" y2="92.4409" stroke="#583AB3" stroke-width="1.40268"/>
<line x1="43.2813" y1="100.266" x2="47.6491" y2="92.7002" stroke="#583AB3" stroke-width="1.40268"/>
<line x1="62.0713" y1="99.8929" x2="67.6865" y2="93.201" stroke="#583AB3" stroke-width="1.40268"/>
<line x1="81.0063" y1="99.2606" x2="87.6982" y2="93.6454" stroke="#583AB3" stroke-width="1.40268"/>
<line x1="100.106" y1="98.3711" x2="107.671" y2="94.0033" stroke="#583AB3" stroke-width="1.40268"/>
<line x1="119.388" y1="97.7736" x2="127.597" y2="94.7858" stroke="#583AB3" stroke-width="1.40268"/>
<line x1="138.867" y1="96.9226" x2="147.47" y2="95.4057" stroke="#583AB3" stroke-width="1.40268"/>
<line x1="6.0241" y1="101.04" x2="7.54103" y2="92.4373" stroke="#583AB3" stroke-width="1.40268"/>
<line x1="169.465" y1="97.4953" x2="160.729" y2="97.4953" stroke="#583AB3" stroke-width="1.40268"/>
<line x1="188.898" y1="98.304" x2="180.295" y2="96.787" stroke="#583AB3" stroke-width="1.40268"/>
<line x1="208.141" y1="99.0917" x2="199.932" y2="96.1039" stroke="#583AB3" stroke-width="1.40268"/>
<line x1="4.95442" y1="115.937" x2="7.94221" y2="107.728" stroke="#583AB3" stroke-width="1.40268"/>
<line x1="23.6246" y1="115.553" x2="27.9924" y2="107.987" stroke="#583AB3" stroke-width="1.40268"/>
<line x1="42.4145" y1="115.18" x2="48.0297" y2="108.488" stroke="#583AB3" stroke-width="1.40268"/>
<line x1="61.3495" y1="114.548" x2="68.0414" y2="108.932" stroke="#583AB3" stroke-width="1.40268"/>
<line x1="80.4516" y1="113.658" x2="88.017" y2="109.29" stroke="#583AB3" stroke-width="1.40268"/>
<line x1="99.7342" y1="113.061" x2="107.943" y2="110.073" stroke="#583AB3" stroke-width="1.40268"/>
<line x1="119.213" y1="112.211" x2="127.816" y2="110.694" stroke="#583AB3" stroke-width="1.40268"/>
<line x1="207.548" y1="114.873" x2="199.983" y2="110.505" stroke="#583AB3" stroke-width="1.40268"/>
<line x1="149.811" y1="112.783" x2="141.075" y2="112.783" stroke="#583AB3" stroke-width="1.40268"/>
<line x1="169.244" y1="113.592" x2="160.641" y2="112.075" stroke="#583AB3" stroke-width="1.40268"/>
<line x1="188.484" y1="114.379" x2="180.275" y2="111.391" stroke="#583AB3" stroke-width="1.40268"/>
<line x1="3.9705" y1="130.841" x2="8.33835" y2="123.275" stroke="#583AB3" stroke-width="1.40268"/>
<line x1="22.7605" y1="130.467" x2="28.3757" y2="123.775" stroke="#583AB3" stroke-width="1.40268"/>
<line x1="41.6955" y1="129.835" x2="48.3874" y2="124.22" stroke="#583AB3" stroke-width="1.40268"/>
<line x1="60.7949" y1="128.945" x2="68.3602" y2="124.577" stroke="#583AB3" stroke-width="1.40268"/>
<line x1="80.0775" y1="128.348" x2="88.2864" y2="125.36" stroke="#583AB3" stroke-width="1.40268"/>
<line x1="99.5565" y1="127.498" x2="108.159" y2="125.981" stroke="#583AB3" stroke-width="1.40268"/>
<line x1="187.891" y1="130.16" x2="180.326" y2="125.792" stroke="#583AB3" stroke-width="1.40268"/>
<line x1="206.793" y1="130.909" x2="200.101" y2="125.294" stroke="#583AB3" stroke-width="1.40268"/>
<line x1="130.154" y1="128.07" x2="121.418" y2="128.07" stroke="#583AB3" stroke-width="1.40268"/>
<line x1="149.587" y1="128.879" x2="140.984" y2="127.362" stroke="#583AB3" stroke-width="1.40268"/>
<line x1="168.83" y1="129.666" x2="160.621" y2="126.678" stroke="#583AB3" stroke-width="1.40268"/>
<line x1="3.10367" y1="145.755" x2="8.71887" y2="139.063" stroke="#583AB3" stroke-width="1.40268"/>
<line x1="22.0387" y1="145.122" x2="28.7306" y2="139.507" stroke="#583AB3" stroke-width="1.40268"/>
<line x1="41.1408" y1="144.233" x2="48.7062" y2="139.866" stroke="#583AB3" stroke-width="1.40268"/>
<line x1="60.4235" y1="143.636" x2="68.6324" y2="140.648" stroke="#583AB3" stroke-width="1.40268"/>
<line x1="79.9024" y1="142.785" x2="88.5054" y2="141.268" stroke="#583AB3" stroke-width="1.40268"/>
<line x1="168.237" y1="145.448" x2="160.672" y2="141.08" stroke="#583AB3" stroke-width="1.40268"/>
<line x1="187.136" y1="146.196" x2="180.444" y2="140.581" stroke="#583AB3" stroke-width="1.40268"/>
<line x1="205.898" y1="146.657" x2="200.283" y2="139.965" stroke="#583AB3" stroke-width="1.40268"/>
<line x1="110.5" y1="143.358" x2="101.764" y2="143.358" stroke="#583AB3" stroke-width="1.40268"/>
<line x1="129.933" y1="144.166" x2="121.33" y2="142.649" stroke="#583AB3" stroke-width="1.40268"/>
<line x1="149.176" y1="144.954" x2="140.967" y2="141.966" stroke="#583AB3" stroke-width="1.40268"/>
<line x1="2.3847" y1="160.41" x2="9.07664" y2="154.795" stroke="#583AB3" stroke-width="1.40268"/>
<line x1="21.4841" y1="159.521" x2="29.0494" y2="155.153" stroke="#583AB3" stroke-width="1.40268"/>
<line x1="40.7667" y1="158.923" x2="48.9756" y2="155.935" stroke="#583AB3" stroke-width="1.40268"/>
<line x1="60.2457" y1="158.072" x2="68.8487" y2="156.555" stroke="#583AB3" stroke-width="1.40268"/>
<line x1="148.58" y1="160.735" x2="141.015" y2="156.367" stroke="#583AB3" stroke-width="1.40268"/>
<line x1="167.482" y1="161.485" x2="160.79" y2="155.869" stroke="#583AB3" stroke-width="1.40268"/>
<line x1="186.242" y1="161.944" x2="180.626" y2="155.252" stroke="#583AB3" stroke-width="1.40268"/>
<line x1="204.894" y1="162.117" x2="200.526" y2="154.552" stroke="#583AB3" stroke-width="1.40268"/>
<line x1="90.843" y1="158.646" x2="82.1073" y2="158.646" stroke="#583AB3" stroke-width="1.40268"/>
<line x1="110.277" y1="159.453" x2="101.674" y2="157.936" stroke="#583AB3" stroke-width="1.40268"/>
<line x1="129.519" y1="160.241" x2="121.311" y2="157.253" stroke="#583AB3" stroke-width="1.40268"/>
<line x1="1.83005" y1="174.809" x2="9.3954" y2="170.441" stroke="#583AB3" stroke-width="1.40268"/>
<line x1="21.1127" y1="174.211" x2="29.3216" y2="171.223" stroke="#583AB3" stroke-width="1.40268"/>
<line x1="40.5917" y1="173.36" x2="49.1946" y2="171.843" stroke="#583AB3" stroke-width="1.40268"/>
<line x1="128.926" y1="176.023" x2="121.361" y2="171.656" stroke="#583AB3" stroke-width="1.40268"/>
<line x1="147.826" y1="176.772" x2="141.134" y2="171.156" stroke="#583AB3" stroke-width="1.40268"/>
<line x1="166.588" y1="177.231" x2="160.972" y2="170.539" stroke="#583AB3" stroke-width="1.40268"/>
<line x1="185.237" y1="177.404" x2="180.869" y2="169.839" stroke="#583AB3" stroke-width="1.40268"/>
<line x1="203.807" y1="177.566" x2="200.819" y2="169.357" stroke="#583AB3" stroke-width="1.40268"/>
<line x1="71.189" y1="173.933" x2="62.4533" y2="173.933" stroke="#583AB3" stroke-width="1.40268"/>
<line x1="90.6226" y1="174.741" x2="82.0196" y2="173.225" stroke="#583AB3" stroke-width="1.40268"/>
<line x1="109.865" y1="175.529" x2="101.657" y2="172.541" stroke="#583AB3" stroke-width="1.40268"/>
<line x1="1.45593" y1="189.498" x2="9.66481" y2="186.51" stroke="#583AB3" stroke-width="1.40268"/>
<line x1="20.9349" y1="188.648" x2="29.5379" y2="187.131" stroke="#583AB3" stroke-width="1.40268"/>
<line x1="109.27" y1="191.311" x2="101.704" y2="186.943" stroke="#583AB3" stroke-width="1.40268"/>
<line x1="128.172" y1="192.059" x2="121.48" y2="186.444" stroke="#583AB3" stroke-width="1.40268"/>
<line x1="146.934" y1="192.518" x2="141.318" y2="185.826" stroke="#583AB3" stroke-width="1.40268"/>
<line x1="165.583" y1="192.691" x2="161.215" y2="185.126" stroke="#583AB3" stroke-width="1.40268"/>
<line x1="184.15" y1="192.854" x2="181.162" y2="184.645" stroke="#583AB3" stroke-width="1.40268"/>
<line x1="202.671" y1="193.009" x2="201.154" y2="184.406" stroke="#583AB3" stroke-width="1.40268"/>
<line x1="51.5322" y1="189.221" x2="42.7965" y2="189.221" stroke="#583AB3" stroke-width="1.40268"/>
<line x1="70.9659" y1="190.03" x2="62.3629" y2="188.513" stroke="#583AB3" stroke-width="1.40268"/>
<line x1="90.2086" y1="190.816" x2="81.9997" y2="187.828" stroke="#583AB3" stroke-width="1.40268"/>
<line x1="1.28092" y1="203.935" x2="9.88391" y2="202.418" stroke="#583AB3" stroke-width="1.40268"/>
<line x1="89.6156" y1="206.598" x2="82.0503" y2="202.23" stroke="#583AB3" stroke-width="1.40268"/>
<line x1="108.515" y1="207.347" x2="101.823" y2="201.732" stroke="#583AB3" stroke-width="1.40268"/>
<line x1="127.277" y1="207.806" x2="121.662" y2="201.114" stroke="#583AB3" stroke-width="1.40268"/>
<line x1="145.927" y1="207.98" x2="141.559" y2="200.414" stroke="#583AB3" stroke-width="1.40268"/>
<line x1="164.496" y1="208.141" x2="161.508" y2="199.932" stroke="#583AB3" stroke-width="1.40268"/>
<line x1="183.017" y1="208.297" x2="181.5" y2="199.694" stroke="#583AB3" stroke-width="1.40268"/>
<line x1="201.524" y1="208.175" x2="201.524" y2="199.439" stroke="#583AB3" stroke-width="1.40268"/>
<line x1="31.8782" y1="204.508" x2="23.1425" y2="204.508" stroke="#583AB3" stroke-width="1.40268"/>
<line x1="51.3118" y1="205.317" x2="42.7088" y2="203.8" stroke="#583AB3" stroke-width="1.40268"/>
<line x1="70.5546" y1="206.103" x2="62.3457" y2="203.116" stroke="#583AB3" stroke-width="1.40268"/>
<line x1="69.9589" y1="221.886" x2="62.3936" y2="217.518" stroke="#583AB3" stroke-width="1.40268"/>
<line x1="88.8607" y1="222.634" x2="82.1688" y2="217.019" stroke="#583AB3" stroke-width="1.40268"/>
<line x1="107.623" y1="223.094" x2="102.008" y2="216.402" stroke="#583AB3" stroke-width="1.40268"/>
<line x1="126.273" y1="223.267" x2="121.905" y2="215.701" stroke="#583AB3" stroke-width="1.40268"/>
<line x1="144.839" y1="223.429" x2="141.852" y2="215.22" stroke="#583AB3" stroke-width="1.40268"/>
<line x1="163.36" y1="223.584" x2="161.843" y2="214.981" stroke="#583AB3" stroke-width="1.40268"/>
<line x1="181.867" y1="223.462" x2="181.867" y2="214.726" stroke="#583AB3" stroke-width="1.40268"/>
<line x1="200.397" y1="223.34" x2="201.914" y2="214.737" stroke="#583AB3" stroke-width="1.40268"/>
<line x1="12.2214" y1="219.795" x2="3.48573" y2="219.795" stroke="#583AB3" stroke-width="1.40268"/>
<line x1="31.6551" y1="220.604" x2="23.0521" y2="219.087" stroke="#583AB3" stroke-width="1.40268"/>
<line x1="50.8978" y1="221.391" x2="42.6889" y2="218.404" stroke="#583AB3" stroke-width="1.40268"/>
<line x1="199.325" y1="238.237" x2="202.313" y2="230.028" stroke="#583AB3" stroke-width="1.40268"/>
<line x1="50.3048" y1="237.173" x2="42.7395" y2="232.805" stroke="#583AB3" stroke-width="1.40268"/>
<line x1="69.204" y1="237.922" x2="62.512" y2="232.307" stroke="#583AB3" stroke-width="1.40268"/>
<line x1="87.9661" y1="238.381" x2="82.3509" y2="231.69" stroke="#583AB3" stroke-width="1.40268"/>
<line x1="106.616" y1="238.555" x2="102.248" y2="230.989" stroke="#583AB3" stroke-width="1.40268"/>
<line x1="125.185" y1="238.716" x2="122.198" y2="230.508" stroke="#583AB3" stroke-width="1.40268"/>
<line x1="143.706" y1="238.872" x2="142.189" y2="230.269" stroke="#583AB3" stroke-width="1.40268"/>
<line x1="162.213" y1="238.75" x2="162.213" y2="230.014" stroke="#583AB3" stroke-width="1.40268"/>
<line x1="180.741" y1="238.628" x2="182.257" y2="230.025" stroke="#583AB3" stroke-width="1.40268"/>
<line x1="12.001" y1="235.891" x2="3.39802" y2="234.374" stroke="#583AB3" stroke-width="1.40268"/>
<line x1="31.2438" y1="236.679" x2="23.035" y2="233.691" stroke="#583AB3" stroke-width="1.40268"/>
<line x1="179.671" y1="253.524" x2="182.659" y2="245.315" stroke="#583AB3" stroke-width="1.40268"/>
<line x1="198.341" y1="253.14" x2="202.709" y2="245.574" stroke="#583AB3" stroke-width="1.40268"/>
<line x1="30.6481" y1="252.461" x2="23.0828" y2="248.093" stroke="#583AB3" stroke-width="1.40268"/>
<line x1="49.55" y1="253.209" x2="42.858" y2="247.594" stroke="#583AB3" stroke-width="1.40268"/>
<line x1="68.3121" y1="253.669" x2="62.6969" y2="246.977" stroke="#583AB3" stroke-width="1.40268"/>
<line x1="86.9618" y1="253.841" x2="82.5939" y2="246.276" stroke="#583AB3" stroke-width="1.40268"/>
<line x1="105.529" y1="254.004" x2="102.541" y2="245.795" stroke="#583AB3" stroke-width="1.40268"/>
<line x1="124.05" y1="254.159" x2="122.533" y2="245.556" stroke="#583AB3" stroke-width="1.40268"/>
<line x1="142.556" y1="254.037" x2="142.556" y2="245.301" stroke="#583AB3" stroke-width="1.40268"/>
<line x1="161.087" y1="253.915" x2="162.603" y2="245.312" stroke="#583AB3" stroke-width="1.40268"/>
<line x1="11.587" y1="251.967" x2="3.37815" y2="248.979" stroke="#583AB3" stroke-width="1.40268"/>
<line x1="160.014" y1="268.812" x2="163.002" y2="260.603" stroke="#583AB3" stroke-width="1.40268"/>
<line x1="178.687" y1="268.428" x2="183.055" y2="260.862" stroke="#583AB3" stroke-width="1.40268"/>
<line x1="197.477" y1="268.054" x2="203.092" y2="261.362" stroke="#583AB3" stroke-width="1.40268"/>
<line x1="10.9941" y1="267.748" x2="3.42877" y2="263.38" stroke="#583AB3" stroke-width="1.40268"/>
<line x1="29.8932" y1="268.496" x2="23.2012" y2="262.881" stroke="#583AB3" stroke-width="1.40268"/>
<line x1="48.6553" y1="268.956" x2="43.0401" y2="262.264" stroke="#583AB3" stroke-width="1.40268"/>
<line x1="67.305" y1="269.129" x2="62.9372" y2="261.564" stroke="#583AB3" stroke-width="1.40268"/>
<line x1="85.8745" y1="269.292" x2="82.8867" y2="261.083" stroke="#583AB3" stroke-width="1.40268"/>
<line x1="104.396" y1="269.446" x2="102.879" y2="260.843" stroke="#583AB3" stroke-width="1.40268"/>
<line x1="122.902" y1="269.324" x2="122.902" y2="260.589" stroke="#583AB3" stroke-width="1.40268"/>
<line x1="141.43" y1="269.202" x2="142.947" y2="260.599" stroke="#583AB3" stroke-width="1.40268"/>
<line x1="140.36" y1="284.099" x2="143.348" y2="275.89" stroke="#583AB3" stroke-width="1.40268"/>
<line x1="159.03" y1="283.716" x2="163.398" y2="276.15" stroke="#583AB3" stroke-width="1.40268"/>
<line x1="177.82" y1="283.342" x2="183.435" y2="276.65" stroke="#583AB3" stroke-width="1.40268"/>
<line x1="196.755" y1="282.71" x2="203.447" y2="277.095" stroke="#583AB3" stroke-width="1.40268"/>
<line x1="10.2392" y1="283.784" x2="3.54725" y2="278.169" stroke="#583AB3" stroke-width="1.40268"/>
<line x1="29.0013" y1="284.244" x2="23.3861" y2="277.552" stroke="#583AB3" stroke-width="1.40268"/>
<line x1="47.651" y1="284.417" x2="43.2831" y2="276.852" stroke="#583AB3" stroke-width="1.40268"/>
<line x1="66.2178" y1="284.579" x2="63.23" y2="276.37" stroke="#583AB3" stroke-width="1.40268"/>
<line x1="84.7388" y1="284.734" x2="83.2219" y2="276.131" stroke="#583AB3" stroke-width="1.40268"/>
<line x1="103.245" y1="284.612" x2="103.245" y2="275.877" stroke="#583AB3" stroke-width="1.40268"/>
<line x1="121.776" y1="284.491" x2="123.293" y2="275.888" stroke="#583AB3" stroke-width="1.40268"/>
</g>
</svg>
