<svg width="129" height="120" viewBox="0 0 129 120" fill="none" xmlns="http://www.w3.org/2000/svg">
<circle cx="64.5" cy="60" r="58.5" fill="white" stroke="url(#paint0_linear_658_2850)" stroke-width="3"/>
<circle cx="64.5" cy="60" r="52" fill="#E4A321"/>
<g filter="url(#filter0_d_658_2850)">
<circle cx="64.5" cy="60" r="38" fill="white"/>
</g>
<circle cx="123.75" cy="59.75" r="3.75" fill="white" stroke="url(#paint1_linear_658_2850)" stroke-width="3"/>
<circle cx="5.25" cy="59.75" r="3.75" fill="white" stroke="url(#paint2_linear_658_2850)" stroke-width="3"/>
<path d="M44.6386 47.544C44.6386 42.4693 45.548 38.4947 47.3666 35.62C49.2146 32.7453 52.2653 31.308 56.5186 31.308C60.772 31.308 63.808 32.7453 65.6266 35.62C67.4746 38.4947 68.3986 42.4693 68.3986 47.544C68.3986 52.648 67.4746 56.652 65.6266 59.556C63.808 62.46 60.772 63.912 56.5186 63.912C52.2653 63.912 49.2146 62.46 47.3666 59.556C45.548 56.652 44.6386 52.648 44.6386 47.544ZM62.3266 47.544C62.3266 45.3733 62.18 43.5547 61.8866 42.088C61.6226 40.592 61.0653 39.3747 60.2146 38.436C59.3933 37.4973 58.1613 37.028 56.5186 37.028C54.876 37.028 53.6293 37.4973 52.7786 38.436C51.9573 39.3747 51.4 40.592 51.1066 42.088C50.8426 43.5547 50.7106 45.3733 50.7106 47.544C50.7106 49.7733 50.8426 51.6507 51.1066 53.176C51.3706 54.672 51.928 55.8893 52.7786 56.828C53.6293 57.7373 54.876 58.192 56.5186 58.192C58.1613 58.192 59.408 57.7373 60.2586 56.828C61.1093 55.8893 61.6666 54.672 61.9306 53.176C62.1946 51.6507 62.3266 49.7733 62.3266 47.544ZM72.336 37.6V31.924H82.94V64H76.604V37.6H72.336Z" fill="#2E2E2E"/>
<path d="M46.7439 79.02C46.7439 77.66 47.0572 76.44 47.6839 75.36C48.3239 74.28 49.1839 73.44 50.2639 72.84C51.3572 72.2267 52.5506 71.92 53.8439 71.92C55.3239 71.92 56.6372 72.2867 57.7839 73.02C58.9439 73.74 59.7839 74.7667 60.3039 76.1H57.5639C57.2039 75.3667 56.7039 74.82 56.0639 74.46C55.4239 74.1 54.6839 73.92 53.8439 73.92C52.9239 73.92 52.1039 74.1267 51.3839 74.54C50.6639 74.9533 50.0972 75.5467 49.6839 76.32C49.2839 77.0933 49.0839 77.9933 49.0839 79.02C49.0839 80.0467 49.2839 80.9467 49.6839 81.72C50.0972 82.4933 50.6639 83.0933 51.3839 83.52C52.1039 83.9333 52.9239 84.14 53.8439 84.14C54.6839 84.14 55.4239 83.96 56.0639 83.6C56.7039 83.24 57.2039 82.6933 57.5639 81.96H60.3039C59.7839 83.2933 58.9439 84.32 57.7839 85.04C56.6372 85.76 55.3239 86.12 53.8439 86.12C52.5372 86.12 51.3439 85.82 50.2639 85.22C49.1839 84.6067 48.3239 83.76 47.6839 82.68C47.0572 81.6 46.7439 80.38 46.7439 79.02ZM70.1927 86L66.9927 80.44H65.2527V86H62.9727V72.1H67.7727C68.8393 72.1 69.7393 72.2867 70.4727 72.66C71.2193 73.0333 71.7727 73.5333 72.1327 74.16C72.506 74.7867 72.6927 75.4867 72.6927 76.26C72.6927 77.1667 72.426 77.9933 71.8927 78.74C71.3727 79.4733 70.566 79.9733 69.4727 80.24L72.9127 86H70.1927ZM65.2527 78.62H67.7727C68.626 78.62 69.266 78.4067 69.6927 77.98C70.1327 77.5533 70.3527 76.98 70.3527 76.26C70.3527 75.54 70.1393 74.98 69.7127 74.58C69.286 74.1667 68.6393 73.96 67.7727 73.96H65.2527V78.62ZM77.8894 84.16H82.5894V86H75.6094V72.1H77.8894V84.16Z" fill="#2E2E2E"/>
<defs>
<filter id="filter0_d_658_2850" x="20.5" y="22" width="88" height="92" filterUnits="userSpaceOnUse" color-interpolation-filters="sRGB">
<feFlood flood-opacity="0" result="BackgroundImageFix"/>
<feColorMatrix in="SourceAlpha" type="matrix" values="0 0 0 0 0 0 0 0 0 0 0 0 0 0 0 0 0 0 127 0" result="hardAlpha"/>
<feOffset dy="10"/>
<feGaussianBlur stdDeviation="3"/>
<feComposite in2="hardAlpha" operator="out"/>
<feColorMatrix type="matrix" values="0 0 0 0 0.8125 0 0 0 0 0.568073 0 0 0 0 0.0792188 0 0 0 1 0"/>
<feBlend mode="normal" in2="BackgroundImageFix" result="effect1_dropShadow_658_2850"/>
<feBlend mode="normal" in="SourceGraphic" in2="effect1_dropShadow_658_2850" result="shape"/>
</filter>
<linearGradient id="paint0_linear_658_2850" x1="64.5" y1="0" x2="106.75" y2="118.25" gradientUnits="userSpaceOnUse">
<stop stop-color="#E2A11A"/>
<stop offset="1" stop-color="#D82108"/>
</linearGradient>
<linearGradient id="paint1_linear_658_2850" x1="123.75" y1="54.5" x2="127.447" y2="64.8469" gradientUnits="userSpaceOnUse">
<stop stop-color="#E2A11A"/>
<stop offset="1" stop-color="#D82108"/>
</linearGradient>
<linearGradient id="paint2_linear_658_2850" x1="5.25" y1="54.5" x2="8.94688" y2="64.8469" gradientUnits="userSpaceOnUse">
<stop stop-color="#E2A11A"/>
<stop offset="1" stop-color="#D82108"/>
</linearGradient>
</defs>
</svg>
