<svg width="130" height="120" viewBox="0 0 130 120" fill="none" xmlns="http://www.w3.org/2000/svg">
<circle cx="65.375" cy="60" r="58.5" fill="white" stroke="url(#paint0_linear_658_2859)" stroke-width="3"/>
<circle cx="65.375" cy="60" r="52" fill="url(#paint1_linear_658_2859)"/>
<g filter="url(#filter0_d_658_2859)">
<circle cx="65.375" cy="60" r="38" fill="white"/>
</g>
<circle cx="124.625" cy="59.75" r="3.75" fill="white" stroke="url(#paint2_linear_658_2859)" stroke-width="3"/>
<circle cx="6.125" cy="59.75" r="3.75" fill="white" stroke="url(#paint3_linear_658_2859)" stroke-width="3"/>
<path d="M41.3515 47.544C41.3515 42.4693 42.2609 38.4947 44.0795 35.62C45.9275 32.7453 48.9782 31.308 53.2315 31.308C57.4849 31.308 60.5209 32.7453 62.3395 35.62C64.1875 38.4947 65.1115 42.4693 65.1115 47.544C65.1115 52.648 64.1875 56.652 62.3395 59.556C60.5209 62.46 57.4849 63.912 53.2315 63.912C48.9782 63.912 45.9275 62.46 44.0795 59.556C42.2609 56.652 41.3515 52.648 41.3515 47.544ZM59.0395 47.544C59.0395 45.3733 58.8929 43.5547 58.5995 42.088C58.3355 40.592 57.7782 39.3747 56.9275 38.436C56.1062 37.4973 54.8742 37.028 53.2315 37.028C51.5889 37.028 50.3422 37.4973 49.4915 38.436C48.6702 39.3747 48.1129 40.592 47.8195 42.088C47.5555 43.5547 47.4235 45.3733 47.4235 47.544C47.4235 49.7733 47.5555 51.6507 47.8195 53.176C48.0835 54.672 48.6409 55.8893 49.4915 56.828C50.3422 57.7373 51.5889 58.192 53.2315 58.192C54.8742 58.192 56.1209 57.7373 56.9715 56.828C57.8222 55.8893 58.3795 54.672 58.6435 53.176C58.9075 51.6507 59.0395 49.7733 59.0395 47.544ZM71.7328 57.048C74.5488 54.7013 76.7928 52.7507 78.4648 51.196C80.1368 49.612 81.5302 47.9693 82.6448 46.268C83.7595 44.5667 84.3168 42.8947 84.3168 41.252C84.3168 39.756 83.9648 38.5827 83.2608 37.732C82.5568 36.8813 81.4715 36.456 80.0048 36.456C78.5382 36.456 77.4088 36.9547 76.6168 37.952C75.8248 38.92 75.4142 40.2547 75.3848 41.956H69.4008C69.5182 38.436 70.5595 35.7667 72.5248 33.948C74.5195 32.1293 77.0422 31.22 80.0928 31.22C83.4368 31.22 86.0035 32.1147 87.7928 33.904C89.5822 35.664 90.4768 37.996 90.4768 40.9C90.4768 43.188 89.8608 45.3733 88.6288 47.456C87.3968 49.5387 85.9888 51.3573 84.4048 52.912C82.8208 54.4373 80.7528 56.2853 78.2008 58.456H91.1808V63.56H69.4448V58.984L71.7328 57.048Z" fill="#2E2E2E"/>
<path d="M48.1189 79.02C48.1189 77.66 48.4322 76.44 49.0589 75.36C49.6989 74.28 50.5589 73.44 51.6389 72.84C52.7322 72.2267 53.9256 71.92 55.2189 71.92C56.6989 71.92 58.0122 72.2867 59.1589 73.02C60.3189 73.74 61.1589 74.7667 61.6789 76.1H58.9389C58.5789 75.3667 58.0789 74.82 57.4389 74.46C56.7989 74.1 56.0589 73.92 55.2189 73.92C54.2989 73.92 53.4789 74.1267 52.7589 74.54C52.0389 74.9533 51.4722 75.5467 51.0589 76.32C50.6589 77.0933 50.4589 77.9933 50.4589 79.02C50.4589 80.0467 50.6589 80.9467 51.0589 81.72C51.4722 82.4933 52.0389 83.0933 52.7589 83.52C53.4789 83.9333 54.2989 84.14 55.2189 84.14C56.0589 84.14 56.7989 83.96 57.4389 83.6C58.0789 83.24 58.5789 82.6933 58.9389 81.96H61.6789C61.1589 83.2933 60.3189 84.32 59.1589 85.04C58.0122 85.76 56.6989 86.12 55.2189 86.12C53.9122 86.12 52.7189 85.82 51.6389 85.22C50.5589 84.6067 49.6989 83.76 49.0589 82.68C48.4322 81.6 48.1189 80.38 48.1189 79.02ZM71.5677 86L68.3677 80.44H66.6277V86H64.3477V72.1H69.1477C70.2143 72.1 71.1143 72.2867 71.8477 72.66C72.5943 73.0333 73.1477 73.5333 73.5077 74.16C73.881 74.7867 74.0677 75.4867 74.0677 76.26C74.0677 77.1667 73.801 77.9933 73.2677 78.74C72.7477 79.4733 71.941 79.9733 70.8477 80.24L74.2877 86H71.5677ZM66.6277 78.62H69.1477C70.001 78.62 70.641 78.4067 71.0677 77.98C71.5077 77.5533 71.7277 76.98 71.7277 76.26C71.7277 75.54 71.5143 74.98 71.0877 74.58C70.661 74.1667 70.0143 73.96 69.1477 73.96H66.6277V78.62ZM79.2644 84.16H83.9644V86H76.9844V72.1H79.2644V84.16Z" fill="#2E2E2E"/>
<defs>
<filter id="filter0_d_658_2859" x="21.375" y="22" width="88" height="92" filterUnits="userSpaceOnUse" color-interpolation-filters="sRGB">
<feFlood flood-opacity="0" result="BackgroundImageFix"/>
<feColorMatrix in="SourceAlpha" type="matrix" values="0 0 0 0 0 0 0 0 0 0 0 0 0 0 0 0 0 0 127 0" result="hardAlpha"/>
<feOffset dy="10"/>
<feGaussianBlur stdDeviation="3"/>
<feComposite in2="hardAlpha" operator="out"/>
<feColorMatrix type="matrix" values="0 0 0 0 0.9375 0 0 0 0 0.308789 0 0 0 0 0.0992188 0 0 0 1 0"/>
<feBlend mode="normal" in2="BackgroundImageFix" result="effect1_dropShadow_658_2859"/>
<feBlend mode="normal" in="SourceGraphic" in2="effect1_dropShadow_658_2859" result="shape"/>
</filter>
<linearGradient id="paint0_linear_658_2859" x1="36.125" y1="8.5" x2="98.875" y2="110.25" gradientUnits="userSpaceOnUse">
<stop stop-color="#F97549"/>
<stop offset="1" stop-color="#D82108"/>
</linearGradient>
<linearGradient id="paint1_linear_658_2859" x1="31.125" y1="22.25" x2="103.875" y2="109" gradientUnits="userSpaceOnUse">
<stop stop-color="#F6914F"/>
<stop offset="1" stop-color="#F97549"/>
</linearGradient>
<linearGradient id="paint2_linear_658_2859" x1="122.066" y1="55.2437" x2="127.556" y2="64.1469" gradientUnits="userSpaceOnUse">
<stop stop-color="#F97549"/>
<stop offset="1" stop-color="#D82108"/>
</linearGradient>
<linearGradient id="paint3_linear_658_2859" x1="3.56563" y1="55.2437" x2="9.05625" y2="64.1469" gradientUnits="userSpaceOnUse">
<stop stop-color="#F97549"/>
<stop offset="1" stop-color="#D82108"/>
</linearGradient>
</defs>
</svg>
