<svg width="130" height="120" viewBox="0 0 130 120" fill="none" xmlns="http://www.w3.org/2000/svg">
<circle cx="65.25" cy="60" r="58.5" fill="white" stroke="url(#paint0_linear_658_2868)" stroke-width="3"/>
<circle cx="65.25" cy="60" r="52" fill="url(#paint1_linear_658_2868)"/>
<g filter="url(#filter0_d_658_2868)">
<circle cx="65.25" cy="60" r="38" fill="white"/>
</g>
<circle cx="124.5" cy="59.75" r="3.75" fill="white" stroke="url(#paint2_linear_658_2868)" stroke-width="3"/>
<circle cx="6" cy="59.75" r="3.75" fill="white" stroke="url(#paint3_linear_658_2868)" stroke-width="3"/>
<path d="M40.1894 47.544C40.1894 42.4693 41.0988 38.4947 42.9174 35.62C44.7654 32.7453 47.8161 31.308 52.0694 31.308C56.3228 31.308 59.3588 32.7453 61.1774 35.62C63.0254 38.4947 63.9494 42.4693 63.9494 47.544C63.9494 52.648 63.0254 56.652 61.1774 59.556C59.3588 62.46 56.3228 63.912 52.0694 63.912C47.8161 63.912 44.7654 62.46 42.9174 59.556C41.0988 56.652 40.1894 52.648 40.1894 47.544ZM57.8774 47.544C57.8774 45.3733 57.7308 43.5547 57.4374 42.088C57.1734 40.592 56.6161 39.3747 55.7654 38.436C54.9441 37.4973 53.7121 37.028 52.0694 37.028C50.4268 37.028 49.1801 37.4973 48.3294 38.436C47.5081 39.3747 46.9508 40.592 46.6574 42.088C46.3934 43.5547 46.2614 45.3733 46.2614 47.544C46.2614 49.7733 46.3934 51.6507 46.6574 53.176C46.9214 54.672 47.4788 55.8893 48.3294 56.828C49.1801 57.7373 50.4268 58.192 52.0694 58.192C53.7121 58.192 54.9588 57.7373 55.8094 56.828C56.6601 55.8893 57.2174 54.672 57.4814 53.176C57.7454 51.6507 57.8774 49.7733 57.8774 47.544ZM68.7227 40.372C68.8694 37.4387 69.8961 35.18 71.8027 33.596C73.7387 31.9827 76.2761 31.176 79.4147 31.176C81.5561 31.176 83.3894 31.5573 84.9147 32.32C86.4401 33.0533 87.5841 34.0653 88.3467 35.356C89.1387 36.6173 89.5347 38.0547 89.5347 39.668C89.5347 41.516 89.0507 43.0853 88.0827 44.376C87.1441 45.6373 86.0147 46.488 84.6947 46.928V47.104C86.3961 47.632 87.7161 48.5707 88.6547 49.92C89.6227 51.2693 90.1067 53 90.1067 55.112C90.1067 56.872 89.6961 58.4413 88.8747 59.82C88.0827 61.1987 86.8947 62.284 85.3107 63.076C83.7561 63.8387 81.8787 64.22 79.6787 64.22C76.3641 64.22 73.6654 63.384 71.5827 61.712C69.5001 60.04 68.4001 57.576 68.2827 54.32H74.2667C74.3254 55.7573 74.8094 56.916 75.7187 57.796C76.6574 58.6467 77.9334 59.072 79.5467 59.072C81.0427 59.072 82.1867 58.6613 82.9787 57.84C83.8001 56.9893 84.2107 55.904 84.2107 54.584C84.2107 52.824 83.6534 51.5627 82.5387 50.8C81.4241 50.0373 79.6934 49.656 77.3467 49.656H76.0707V44.596H77.3467C81.5121 44.596 83.5947 43.2027 83.5947 40.416C83.5947 39.1547 83.2134 38.172 82.4507 37.468C81.7174 36.764 80.6467 36.412 79.2387 36.412C77.8601 36.412 76.7894 36.7933 76.0267 37.556C75.2934 38.2893 74.8681 39.228 74.7507 40.372H68.7227Z" fill="#2E2E2E"/>
<path d="M47.4939 79.02C47.4939 77.66 47.8072 76.44 48.4339 75.36C49.0739 74.28 49.9339 73.44 51.0139 72.84C52.1072 72.2267 53.3006 71.92 54.5939 71.92C56.0739 71.92 57.3872 72.2867 58.5339 73.02C59.6939 73.74 60.5339 74.7667 61.0539 76.1H58.3139C57.9539 75.3667 57.4539 74.82 56.8139 74.46C56.1739 74.1 55.4339 73.92 54.5939 73.92C53.6739 73.92 52.8539 74.1267 52.1339 74.54C51.4139 74.9533 50.8472 75.5467 50.4339 76.32C50.0339 77.0933 49.8339 77.9933 49.8339 79.02C49.8339 80.0467 50.0339 80.9467 50.4339 81.72C50.8472 82.4933 51.4139 83.0933 52.1339 83.52C52.8539 83.9333 53.6739 84.14 54.5939 84.14C55.4339 84.14 56.1739 83.96 56.8139 83.6C57.4539 83.24 57.9539 82.6933 58.3139 81.96H61.0539C60.5339 83.2933 59.6939 84.32 58.5339 85.04C57.3872 85.76 56.0739 86.12 54.5939 86.12C53.2872 86.12 52.0939 85.82 51.0139 85.22C49.9339 84.6067 49.0739 83.76 48.4339 82.68C47.8072 81.6 47.4939 80.38 47.4939 79.02ZM70.9427 86L67.7427 80.44H66.0027V86H63.7227V72.1H68.5227C69.5893 72.1 70.4893 72.2867 71.2227 72.66C71.9693 73.0333 72.5227 73.5333 72.8827 74.16C73.256 74.7867 73.4427 75.4867 73.4427 76.26C73.4427 77.1667 73.176 77.9933 72.6427 78.74C72.1227 79.4733 71.316 79.9733 70.2227 80.24L73.6627 86H70.9427ZM66.0027 78.62H68.5227C69.376 78.62 70.016 78.4067 70.4427 77.98C70.8827 77.5533 71.1027 76.98 71.1027 76.26C71.1027 75.54 70.8893 74.98 70.4627 74.58C70.036 74.1667 69.3893 73.96 68.5227 73.96H66.0027V78.62ZM78.6394 84.16H83.3394V86H76.3594V72.1H78.6394V84.16Z" fill="#2E2E2E"/>
<defs>
<filter id="filter0_d_658_2868" x="21.25" y="22" width="88" height="92" filterUnits="userSpaceOnUse" color-interpolation-filters="sRGB">
<feFlood flood-opacity="0" result="BackgroundImageFix"/>
<feColorMatrix in="SourceAlpha" type="matrix" values="0 0 0 0 0 0 0 0 0 0 0 0 0 0 0 0 0 0 127 0" result="hardAlpha"/>
<feOffset dy="10"/>
<feGaussianBlur stdDeviation="3"/>
<feComposite in2="hardAlpha" operator="out"/>
<feColorMatrix type="matrix" values="0 0 0 0 0.0880001 0 0 0 0 0.52096 0 0 0 0 0.55 0 0 0 1 0"/>
<feBlend mode="normal" in2="BackgroundImageFix" result="effect1_dropShadow_658_2868"/>
<feBlend mode="normal" in="SourceGraphic" in2="effect1_dropShadow_658_2868" result="shape"/>
</filter>
<linearGradient id="paint0_linear_658_2868" x1="43.5" y1="3.25" x2="96" y2="111" gradientUnits="userSpaceOnUse">
<stop stop-color="#6BCDEE"/>
<stop offset="1" stop-color="#1CC0CB"/>
</linearGradient>
<linearGradient id="paint1_linear_658_2868" x1="38.5" y1="16.5" x2="96.5" y2="103.25" gradientUnits="userSpaceOnUse">
<stop stop-color="#6BCDEE"/>
<stop offset="1" stop-color="#1CC0CB"/>
</linearGradient>
<linearGradient id="paint2_linear_658_2868" x1="122.597" y1="54.7844" x2="127.191" y2="64.2125" gradientUnits="userSpaceOnUse">
<stop stop-color="#6BCDEE"/>
<stop offset="1" stop-color="#1CC0CB"/>
</linearGradient>
<linearGradient id="paint3_linear_658_2868" x1="4.09688" y1="54.7844" x2="8.69062" y2="64.2125" gradientUnits="userSpaceOnUse">
<stop stop-color="#6BCDEE"/>
<stop offset="1" stop-color="#1CC0CB"/>
</linearGradient>
</defs>
</svg>
