<svg width="130" height="120" viewBox="0 0 130 120" fill="none" xmlns="http://www.w3.org/2000/svg">
<circle cx="65.125" cy="60" r="58.5" fill="white" stroke="url(#paint0_linear_658_2877)" stroke-width="3"/>
<circle cx="65.125" cy="60" r="52" fill="url(#paint1_linear_658_2877)"/>
<g filter="url(#filter0_d_658_2877)">
<circle cx="65.125" cy="60" r="38" fill="white"/>
</g>
<circle cx="124.375" cy="59.75" r="3.75" fill="white" stroke="url(#paint2_linear_658_2877)" stroke-width="3"/>
<circle cx="5.875" cy="59.75" r="3.75" fill="white" stroke="url(#paint3_linear_658_2877)" stroke-width="3"/>
<path d="M39.4394 47.544C39.4394 42.4693 40.3488 38.4947 42.1674 35.62C44.0154 32.7453 47.0661 31.308 51.3194 31.308C55.5728 31.308 58.6088 32.7453 60.4274 35.62C62.2754 38.4947 63.1994 42.4693 63.1994 47.544C63.1994 52.648 62.2754 56.652 60.4274 59.556C58.6088 62.46 55.5728 63.912 51.3194 63.912C47.0661 63.912 44.0154 62.46 42.1674 59.556C40.3488 56.652 39.4394 52.648 39.4394 47.544ZM57.1274 47.544C57.1274 45.3733 56.9808 43.5547 56.6874 42.088C56.4234 40.592 55.8661 39.3747 55.0154 38.436C54.1941 37.4973 52.9621 37.028 51.3194 37.028C49.6768 37.028 48.4301 37.4973 47.5794 38.436C46.7581 39.3747 46.2008 40.592 45.9074 42.088C45.6434 43.5547 45.5114 45.3733 45.5114 47.544C45.5114 49.7733 45.6434 51.6507 45.9074 53.176C46.1714 54.672 46.7288 55.8893 47.5794 56.828C48.4301 57.7373 49.6768 58.192 51.3194 58.192C52.9621 58.192 54.2088 57.7373 55.0594 56.828C55.9101 55.8893 56.4674 54.672 56.7314 53.176C56.9954 51.6507 57.1274 49.7733 57.1274 47.544ZM67.6207 57.752V52.912L82.0087 32.32H89.1807V52.384H93.0527V57.752H89.1807V64H83.0207V57.752H67.6207ZM83.4167 38.92L74.3967 52.384H83.4167V38.92Z" fill="#2E2E2E"/>
<path d="M48.1189 79.02C48.1189 77.66 48.4322 76.44 49.0589 75.36C49.6989 74.28 50.5589 73.44 51.6389 72.84C52.7322 72.2267 53.9256 71.92 55.2189 71.92C56.6989 71.92 58.0122 72.2867 59.1589 73.02C60.3189 73.74 61.1589 74.7667 61.6789 76.1H58.9389C58.5789 75.3667 58.0789 74.82 57.4389 74.46C56.7989 74.1 56.0589 73.92 55.2189 73.92C54.2989 73.92 53.4789 74.1267 52.7589 74.54C52.0389 74.9533 51.4722 75.5467 51.0589 76.32C50.6589 77.0933 50.4589 77.9933 50.4589 79.02C50.4589 80.0467 50.6589 80.9467 51.0589 81.72C51.4722 82.4933 52.0389 83.0933 52.7589 83.52C53.4789 83.9333 54.2989 84.14 55.2189 84.14C56.0589 84.14 56.7989 83.96 57.4389 83.6C58.0789 83.24 58.5789 82.6933 58.9389 81.96H61.6789C61.1589 83.2933 60.3189 84.32 59.1589 85.04C58.0122 85.76 56.6989 86.12 55.2189 86.12C53.9122 86.12 52.7189 85.82 51.6389 85.22C50.5589 84.6067 49.6989 83.76 49.0589 82.68C48.4322 81.6 48.1189 80.38 48.1189 79.02ZM71.5677 86L68.3677 80.44H66.6277V86H64.3477V72.1H69.1477C70.2143 72.1 71.1143 72.2867 71.8477 72.66C72.5943 73.0333 73.1477 73.5333 73.5077 74.16C73.881 74.7867 74.0677 75.4867 74.0677 76.26C74.0677 77.1667 73.801 77.9933 73.2677 78.74C72.7477 79.4733 71.941 79.9733 70.8477 80.24L74.2877 86H71.5677ZM66.6277 78.62H69.1477C70.001 78.62 70.641 78.4067 71.0677 77.98C71.5077 77.5533 71.7277 76.98 71.7277 76.26C71.7277 75.54 71.5143 74.98 71.0877 74.58C70.661 74.1667 70.0143 73.96 69.1477 73.96H66.6277V78.62ZM79.2644 84.16H83.9644V86H76.9844V72.1H79.2644V84.16Z" fill="#2E2E2E"/>
<defs>
<filter id="filter0_d_658_2877" x="21.125" y="22" width="88" height="92" filterUnits="userSpaceOnUse" color-interpolation-filters="sRGB">
<feFlood flood-opacity="0" result="BackgroundImageFix"/>
<feColorMatrix in="SourceAlpha" type="matrix" values="0 0 0 0 0 0 0 0 0 0 0 0 0 0 0 0 0 0 127 0" result="hardAlpha"/>
<feOffset dy="10"/>
<feGaussianBlur stdDeviation="3"/>
<feComposite in2="hardAlpha" operator="out"/>
<feColorMatrix type="matrix" values="0 0 0 0 0.7375 0 0 0 0 0.0768229 0 0 0 0 0.111595 0 0 0 0.25 0"/>
<feBlend mode="normal" in2="BackgroundImageFix" result="effect1_dropShadow_658_2877"/>
<feBlend mode="normal" in="SourceGraphic" in2="effect1_dropShadow_658_2877" result="shape"/>
</filter>
<linearGradient id="paint0_linear_658_2877" x1="25.625" y1="13.5" x2="99.375" y2="109" gradientUnits="userSpaceOnUse">
<stop stop-color="#EC6271"/>
<stop offset="1" stop-color="#F04149"/>
</linearGradient>
<linearGradient id="paint1_linear_658_2877" x1="25.125" y1="23.5" x2="101.125" y2="97.75" gradientUnits="userSpaceOnUse">
<stop stop-color="#EC6271"/>
<stop offset="1" stop-color="#F13F47"/>
</linearGradient>
<linearGradient id="paint2_linear_658_2877" x1="120.919" y1="55.6812" x2="127.372" y2="64.0375" gradientUnits="userSpaceOnUse">
<stop stop-color="#EC6271"/>
<stop offset="1" stop-color="#F04149"/>
</linearGradient>
<linearGradient id="paint3_linear_658_2877" x1="2.41875" y1="55.6812" x2="8.87188" y2="64.0375" gradientUnits="userSpaceOnUse">
<stop stop-color="#EC6271"/>
<stop offset="1" stop-color="#F04149"/>
</linearGradient>
</defs>
</svg>
