<svg width="130" height="120" viewBox="0 0 130 120" fill="none" xmlns="http://www.w3.org/2000/svg">
<circle cx="65" cy="60" r="58.5" fill="white" stroke="url(#paint0_linear_658_2886)" stroke-width="3"/>
<circle cx="65" cy="60" r="52" fill="url(#paint1_linear_658_2886)"/>
<g filter="url(#filter0_d_658_2886)">
<circle cx="65.5" cy="60" r="38" fill="white"/>
</g>
<circle cx="124.25" cy="59.75" r="3.75" fill="white" stroke="url(#paint2_linear_658_2886)" stroke-width="3"/>
<circle cx="5.75" cy="59.75" r="3.75" fill="white" stroke="url(#paint3_linear_658_2886)" stroke-width="3"/>
<path d="M38.9511 47.544C38.9511 42.4693 39.8605 38.4947 41.6791 35.62C43.5271 32.7453 46.5778 31.308 50.8311 31.308C55.0845 31.308 58.1205 32.7453 59.9391 35.62C61.7871 38.4947 62.7111 42.4693 62.7111 47.544C62.7111 52.648 61.7871 56.652 59.9391 59.556C58.1205 62.46 55.0845 63.912 50.8311 63.912C46.5778 63.912 43.5271 62.46 41.6791 59.556C39.8605 56.652 38.9511 52.648 38.9511 47.544ZM56.6391 47.544C56.6391 45.3733 56.4925 43.5547 56.1991 42.088C55.9351 40.592 55.3778 39.3747 54.5271 38.436C53.7058 37.4973 52.4738 37.028 50.8311 37.028C49.1885 37.028 47.9418 37.4973 47.0911 38.436C46.2698 39.3747 45.7125 40.592 45.4191 42.088C45.1551 43.5547 45.0231 45.3733 45.0231 47.544C45.0231 49.7733 45.1551 51.6507 45.4191 53.176C45.6831 54.672 46.2405 55.8893 47.0911 56.828C47.9418 57.7373 49.1885 58.192 50.8311 58.192C52.4738 58.192 53.7205 57.7373 54.5711 56.828C55.4218 55.8893 55.9791 54.672 56.2431 53.176C56.5071 51.6507 56.6391 49.7733 56.6391 47.544ZM88.9565 37.248H74.7005V44.772C75.3165 44.0093 76.1965 43.3933 77.3405 42.924C78.4845 42.4253 79.7018 42.176 80.9925 42.176C83.3391 42.176 85.2605 42.6893 86.7565 43.716C88.2525 44.7427 89.3378 46.0627 90.0125 47.676C90.6871 49.26 91.0245 50.9613 91.0245 52.78C91.0245 56.1533 90.0565 58.8667 88.1205 60.92C86.2138 62.9733 83.4858 64 79.9365 64C76.5925 64 73.9231 63.164 71.9285 61.492C69.9338 59.82 68.8045 57.6347 68.5405 54.936H74.5245C74.7885 56.1093 75.3751 57.048 76.2845 57.752C77.2231 58.456 78.4111 58.808 79.8485 58.808C81.5791 58.808 82.8845 58.2653 83.7645 57.18C84.6445 56.0947 85.0845 54.6573 85.0845 52.868C85.0845 51.0493 84.6298 49.6707 83.7205 48.732C82.8405 47.764 81.5351 47.28 79.8045 47.28C78.5725 47.28 77.5458 47.588 76.7245 48.204C75.9031 48.82 75.3165 49.6413 74.9645 50.668H69.0685V31.836H88.9565V37.248Z" fill="#2E2E2E"/>
<path d="M47.2439 79.02C47.2439 77.66 47.5572 76.44 48.1839 75.36C48.8239 74.28 49.6839 73.44 50.7639 72.84C51.8572 72.2267 53.0506 71.92 54.3439 71.92C55.8239 71.92 57.1372 72.2867 58.2839 73.02C59.4439 73.74 60.2839 74.7667 60.8039 76.1H58.0639C57.7039 75.3667 57.2039 74.82 56.5639 74.46C55.9239 74.1 55.1839 73.92 54.3439 73.92C53.4239 73.92 52.6039 74.1267 51.8839 74.54C51.1639 74.9533 50.5972 75.5467 50.1839 76.32C49.7839 77.0933 49.5839 77.9933 49.5839 79.02C49.5839 80.0467 49.7839 80.9467 50.1839 81.72C50.5972 82.4933 51.1639 83.0933 51.8839 83.52C52.6039 83.9333 53.4239 84.14 54.3439 84.14C55.1839 84.14 55.9239 83.96 56.5639 83.6C57.2039 83.24 57.7039 82.6933 58.0639 81.96H60.8039C60.2839 83.2933 59.4439 84.32 58.2839 85.04C57.1372 85.76 55.8239 86.12 54.3439 86.12C53.0372 86.12 51.8439 85.82 50.7639 85.22C49.6839 84.6067 48.8239 83.76 48.1839 82.68C47.5572 81.6 47.2439 80.38 47.2439 79.02ZM70.6927 86L67.4927 80.44H65.7527V86H63.4727V72.1H68.2727C69.3393 72.1 70.2393 72.2867 70.9727 72.66C71.7193 73.0333 72.2727 73.5333 72.6327 74.16C73.006 74.7867 73.1927 75.4867 73.1927 76.26C73.1927 77.1667 72.926 77.9933 72.3927 78.74C71.8727 79.4733 71.066 79.9733 69.9727 80.24L73.4127 86H70.6927ZM65.7527 78.62H68.2727C69.126 78.62 69.766 78.4067 70.1927 77.98C70.6327 77.5533 70.8527 76.98 70.8527 76.26C70.8527 75.54 70.6393 74.98 70.2127 74.58C69.786 74.1667 69.1393 73.96 68.2727 73.96H65.7527V78.62ZM78.3894 84.16H83.0894V86H76.1094V72.1H78.3894V84.16Z" fill="#2E2E2E"/>
<defs>
<filter id="filter0_d_658_2886" x="21.5" y="22" width="88" height="92" filterUnits="userSpaceOnUse" color-interpolation-filters="sRGB">
<feFlood flood-opacity="0" result="BackgroundImageFix"/>
<feColorMatrix in="SourceAlpha" type="matrix" values="0 0 0 0 0 0 0 0 0 0 0 0 0 0 0 0 0 0 127 0" result="hardAlpha"/>
<feOffset dy="10"/>
<feGaussianBlur stdDeviation="3"/>
<feComposite in2="hardAlpha" operator="out"/>
<feColorMatrix type="matrix" values="0 0 0 0 0.106667 0 0 0 0 0.15746 0 0 0 0 0.533333 0 0 0 0.3 0"/>
<feBlend mode="normal" in2="BackgroundImageFix" result="effect1_dropShadow_658_2886"/>
<feBlend mode="normal" in="SourceGraphic" in2="effect1_dropShadow_658_2886" result="shape"/>
</filter>
<linearGradient id="paint0_linear_658_2886" x1="43.25" y1="3.25" x2="95.75" y2="111" gradientUnits="userSpaceOnUse">
<stop stop-color="#4C6EB0"/>
<stop offset="1" stop-color="#345099"/>
</linearGradient>
<linearGradient id="paint1_linear_658_2886" x1="38.25" y1="16.5" x2="96.25" y2="103.25" gradientUnits="userSpaceOnUse">
<stop stop-color="#6B88EE"/>
<stop offset="1" stop-color="#1C2ECB"/>
</linearGradient>
<linearGradient id="paint2_linear_658_2886" x1="122.347" y1="54.7844" x2="126.941" y2="64.2125" gradientUnits="userSpaceOnUse">
<stop stop-color="#4C6EB0"/>
<stop offset="1" stop-color="#345099"/>
</linearGradient>
<linearGradient id="paint3_linear_658_2886" x1="3.84688" y1="54.7844" x2="8.44062" y2="64.2125" gradientUnits="userSpaceOnUse">
<stop stop-color="#4C6EB0"/>
<stop offset="1" stop-color="#345099"/>
</linearGradient>
</defs>
</svg>
