<svg width="130" height="120" viewBox="0 0 130 120" fill="none" xmlns="http://www.w3.org/2000/svg">
<circle cx="64.875" cy="60" r="58.5" fill="white" stroke="url(#paint0_linear_658_2895)" stroke-width="3"/>
<circle cx="64.875" cy="60" r="52" fill="url(#paint1_linear_658_2895)"/>
<g filter="url(#filter0_d_658_2895)">
<circle cx="65.375" cy="60" r="38" fill="white"/>
</g>
<circle cx="124.125" cy="59.75" r="3.75" fill="white" stroke="url(#paint2_linear_658_2895)" stroke-width="3"/>
<circle cx="5.625" cy="59.75" r="3.75" fill="white" stroke="url(#paint3_linear_658_2895)" stroke-width="3"/>
<path d="M38.9121 47.544C38.9121 42.4693 39.8214 38.4947 41.6401 35.62C43.4881 32.7453 46.5387 31.308 50.7921 31.308C55.0454 31.308 58.0814 32.7453 59.9001 35.62C61.7481 38.4947 62.6721 42.4693 62.6721 47.544C62.6721 52.648 61.7481 56.652 59.9001 59.556C58.0814 62.46 55.0454 63.912 50.7921 63.912C46.5387 63.912 43.4881 62.46 41.6401 59.556C39.8214 56.652 38.9121 52.648 38.9121 47.544ZM56.6001 47.544C56.6001 45.3733 56.4534 43.5547 56.1601 42.088C55.8961 40.592 55.3387 39.3747 54.4881 38.436C53.6667 37.4973 52.4347 37.028 50.7921 37.028C49.1494 37.028 47.9027 37.4973 47.0521 38.436C46.2307 39.3747 45.6734 40.592 45.3801 42.088C45.1161 43.5547 44.9841 45.3733 44.9841 47.544C44.9841 49.7733 45.1161 51.6507 45.3801 53.176C45.6441 54.672 46.2014 55.8893 47.0521 56.828C47.9027 57.7373 49.1494 58.192 50.7921 58.192C52.4347 58.192 53.6814 57.7373 54.5321 56.828C55.3827 55.8893 55.9401 54.672 56.2041 53.176C56.4681 51.6507 56.6001 49.7733 56.6001 47.544ZM83.9894 39.932C83.6961 38.7 83.1827 37.776 82.4494 37.16C81.7454 36.544 80.7187 36.236 79.3694 36.236C77.3454 36.236 75.8494 37.0573 74.8814 38.7C73.9427 40.3133 73.4587 42.9533 73.4294 46.62C74.1334 45.4467 75.1601 44.5373 76.5094 43.892C77.8587 43.2173 79.3254 42.88 80.9094 42.88C82.8161 42.88 84.5027 43.2907 85.9694 44.112C87.4361 44.9333 88.5801 46.136 89.4014 47.72C90.2227 49.2747 90.6334 51.152 90.6334 53.352C90.6334 55.4347 90.2081 57.2973 89.3574 58.94C88.5361 60.5533 87.3187 61.8147 85.7054 62.724C84.0921 63.6333 82.1707 64.088 79.9414 64.088C76.8907 64.088 74.4854 63.4133 72.7254 62.064C70.9947 60.7147 69.7774 58.8373 69.0734 56.432C68.3987 53.9973 68.0614 51.0053 68.0614 47.456C68.0614 42.088 68.9854 38.04 70.8334 35.312C72.6814 32.5547 75.6001 31.176 79.5894 31.176C82.6694 31.176 85.0601 32.012 86.7614 33.684C88.4627 35.356 89.4454 37.4387 89.7094 39.932H83.9894ZM79.5014 47.94C77.9467 47.94 76.6414 48.3947 75.5854 49.304C74.5294 50.2133 74.0014 51.5333 74.0014 53.264C74.0014 54.9947 74.4854 56.3587 75.4534 57.356C76.4507 58.3533 77.8441 58.852 79.6334 58.852C81.2174 58.852 82.4641 58.368 83.3734 57.4C84.3121 56.432 84.7814 55.1267 84.7814 53.484C84.7814 51.7827 84.3267 50.4333 83.4174 49.436C82.5374 48.4387 81.2321 47.94 79.5014 47.94Z" fill="#2E2E2E"/>
<path d="M47.1189 79.02C47.1189 77.66 47.4322 76.44 48.0589 75.36C48.6989 74.28 49.5589 73.44 50.6389 72.84C51.7322 72.2267 52.9256 71.92 54.2189 71.92C55.6989 71.92 57.0122 72.2867 58.1589 73.02C59.3189 73.74 60.1589 74.7667 60.6789 76.1H57.9389C57.5789 75.3667 57.0789 74.82 56.4389 74.46C55.7989 74.1 55.0589 73.92 54.2189 73.92C53.2989 73.92 52.4789 74.1267 51.7589 74.54C51.0389 74.9533 50.4722 75.5467 50.0589 76.32C49.6589 77.0933 49.4589 77.9933 49.4589 79.02C49.4589 80.0467 49.6589 80.9467 50.0589 81.72C50.4722 82.4933 51.0389 83.0933 51.7589 83.52C52.4789 83.9333 53.2989 84.14 54.2189 84.14C55.0589 84.14 55.7989 83.96 56.4389 83.6C57.0789 83.24 57.5789 82.6933 57.9389 81.96H60.6789C60.1589 83.2933 59.3189 84.32 58.1589 85.04C57.0122 85.76 55.6989 86.12 54.2189 86.12C52.9122 86.12 51.7189 85.82 50.6389 85.22C49.5589 84.6067 48.6989 83.76 48.0589 82.68C47.4322 81.6 47.1189 80.38 47.1189 79.02ZM70.5677 86L67.3677 80.44H65.6277V86H63.3477V72.1H68.1477C69.2143 72.1 70.1143 72.2867 70.8477 72.66C71.5943 73.0333 72.1477 73.5333 72.5077 74.16C72.881 74.7867 73.0677 75.4867 73.0677 76.26C73.0677 77.1667 72.801 77.9933 72.2677 78.74C71.7477 79.4733 70.941 79.9733 69.8477 80.24L73.2877 86H70.5677ZM65.6277 78.62H68.1477C69.001 78.62 69.641 78.4067 70.0677 77.98C70.5077 77.5533 70.7277 76.98 70.7277 76.26C70.7277 75.54 70.5143 74.98 70.0877 74.58C69.661 74.1667 69.0143 73.96 68.1477 73.96H65.6277V78.62ZM78.2644 84.16H82.9644V86H75.9844V72.1H78.2644V84.16Z" fill="#2E2E2E"/>
<defs>
<filter id="filter0_d_658_2895" x="21.375" y="22" width="88" height="92" filterUnits="userSpaceOnUse" color-interpolation-filters="sRGB">
<feFlood flood-opacity="0" result="BackgroundImageFix"/>
<feColorMatrix in="SourceAlpha" type="matrix" values="0 0 0 0 0 0 0 0 0 0 0 0 0 0 0 0 0 0 127 0" result="hardAlpha"/>
<feOffset dy="10"/>
<feGaussianBlur stdDeviation="3"/>
<feComposite in2="hardAlpha" operator="out"/>
<feColorMatrix type="matrix" values="0 0 0 0 0.204905 0 0 0 0 0.0612155 0 0 0 0 0.380256 0 0 0 0.4 0"/>
<feBlend mode="normal" in2="BackgroundImageFix" result="effect1_dropShadow_658_2895"/>
<feBlend mode="normal" in="SourceGraphic" in2="effect1_dropShadow_658_2895" result="shape"/>
</filter>
<linearGradient id="paint0_linear_658_2895" x1="43.125" y1="3.25" x2="95.625" y2="111" gradientUnits="userSpaceOnUse">
<stop stop-color="#9059D7"/>
<stop offset="1" stop-color="#5D177E"/>
</linearGradient>
<linearGradient id="paint1_linear_658_2895" x1="38.125" y1="16.5" x2="96.125" y2="103.25" gradientUnits="userSpaceOnUse">
<stop stop-color="#8C53EB"/>
<stop offset="1" stop-color="#591D94"/>
</linearGradient>
<linearGradient id="paint2_linear_658_2895" x1="122.222" y1="54.7844" x2="126.816" y2="64.2125" gradientUnits="userSpaceOnUse">
<stop stop-color="#9059D7"/>
<stop offset="1" stop-color="#5D177E"/>
</linearGradient>
<linearGradient id="paint3_linear_658_2895" x1="3.72188" y1="54.7844" x2="8.31562" y2="64.2125" gradientUnits="userSpaceOnUse">
<stop stop-color="#9059D7"/>
<stop offset="1" stop-color="#5D177E"/>
</linearGradient>
</defs>
</svg>
