<svg width="130" height="120" viewBox="0 0 130 120" fill="none" xmlns="http://www.w3.org/2000/svg">
<circle cx="64.75" cy="60" r="58.5" fill="white" stroke="url(#paint0_linear_658_2904)" stroke-width="3"/>
<circle cx="64.75" cy="60" r="52" fill="url(#paint1_linear_658_2904)"/>
<g filter="url(#filter0_d_658_2904)">
<circle cx="65.25" cy="60" r="38" fill="white"/>
</g>
<circle cx="124" cy="59.75" r="3.75" fill="white" stroke="url(#paint2_linear_658_2904)" stroke-width="3"/>
<circle cx="5.5" cy="59.75" r="3.75" fill="white" stroke="url(#paint3_linear_658_2904)" stroke-width="3"/>
<path d="M40.8066 47.544C40.8066 42.4693 41.7159 38.4947 43.5346 35.62C45.3826 32.7453 48.4333 31.308 52.6866 31.308C56.9399 31.308 59.9759 32.7453 61.7946 35.62C63.6426 38.4947 64.5666 42.4693 64.5666 47.544C64.5666 52.648 63.6426 56.652 61.7946 59.556C59.9759 62.46 56.9399 63.912 52.6866 63.912C48.4333 63.912 45.3826 62.46 43.5346 59.556C41.7159 56.652 40.8066 52.648 40.8066 47.544ZM58.4946 47.544C58.4946 45.3733 58.3479 43.5547 58.0546 42.088C57.7906 40.592 57.2333 39.3747 56.3826 38.436C55.5613 37.4973 54.3293 37.028 52.6866 37.028C51.0439 37.028 49.7973 37.4973 48.9466 38.436C48.1253 39.3747 47.5679 40.592 47.2746 42.088C47.0106 43.5547 46.8786 45.3733 46.8786 47.544C46.8786 49.7733 47.0106 51.6507 47.2746 53.176C47.5386 54.672 48.0959 55.8893 48.9466 56.828C49.7973 57.7373 51.0439 58.192 52.6866 58.192C54.3293 58.192 55.5759 57.7373 56.4266 56.828C57.2773 55.8893 57.8346 54.672 58.0986 53.176C58.3626 51.6507 58.4946 49.7733 58.4946 47.544ZM89.6679 36.588L77.9639 64H71.7159L83.5079 37.292H68.4599V32.012H89.6679V36.588Z" fill="#2E2E2E"/>
<path d="M46.9939 79.02C46.9939 77.66 47.3072 76.44 47.9339 75.36C48.5739 74.28 49.4339 73.44 50.5139 72.84C51.6072 72.2267 52.8006 71.92 54.0939 71.92C55.5739 71.92 56.8872 72.2867 58.0339 73.02C59.1939 73.74 60.0339 74.7667 60.5539 76.1H57.8139C57.4539 75.3667 56.9539 74.82 56.3139 74.46C55.6739 74.1 54.9339 73.92 54.0939 73.92C53.1739 73.92 52.3539 74.1267 51.6339 74.54C50.9139 74.9533 50.3472 75.5467 49.9339 76.32C49.5339 77.0933 49.3339 77.9933 49.3339 79.02C49.3339 80.0467 49.5339 80.9467 49.9339 81.72C50.3472 82.4933 50.9139 83.0933 51.6339 83.52C52.3539 83.9333 53.1739 84.14 54.0939 84.14C54.9339 84.14 55.6739 83.96 56.3139 83.6C56.9539 83.24 57.4539 82.6933 57.8139 81.96H60.5539C60.0339 83.2933 59.1939 84.32 58.0339 85.04C56.8872 85.76 55.5739 86.12 54.0939 86.12C52.7872 86.12 51.5939 85.82 50.5139 85.22C49.4339 84.6067 48.5739 83.76 47.9339 82.68C47.3072 81.6 46.9939 80.38 46.9939 79.02ZM70.4427 86L67.2427 80.44H65.5027V86H63.2227V72.1H68.0227C69.0893 72.1 69.9893 72.2867 70.7227 72.66C71.4693 73.0333 72.0227 73.5333 72.3827 74.16C72.756 74.7867 72.9427 75.4867 72.9427 76.26C72.9427 77.1667 72.676 77.9933 72.1427 78.74C71.6227 79.4733 70.816 79.9733 69.7227 80.24L73.1627 86H70.4427ZM65.5027 78.62H68.0227C68.876 78.62 69.516 78.4067 69.9427 77.98C70.3827 77.5533 70.6027 76.98 70.6027 76.26C70.6027 75.54 70.3893 74.98 69.9627 74.58C69.536 74.1667 68.8893 73.96 68.0227 73.96H65.5027V78.62ZM78.1394 84.16H82.8394V86H75.8594V72.1H78.1394V84.16Z" fill="#2E2E2E"/>
<defs>
<filter id="filter0_d_658_2904" x="21.25" y="22" width="88" height="92" filterUnits="userSpaceOnUse" color-interpolation-filters="sRGB">
<feFlood flood-opacity="0" result="BackgroundImageFix"/>
<feColorMatrix in="SourceAlpha" type="matrix" values="0 0 0 0 0 0 0 0 0 0 0 0 0 0 0 0 0 0 127 0" result="hardAlpha"/>
<feOffset dy="10"/>
<feGaussianBlur stdDeviation="3"/>
<feComposite in2="hardAlpha" operator="out"/>
<feColorMatrix type="matrix" values="0 0 0 0 0.368668 0 0 0 0 0.0863477 0 0 0 0 0.426089 0 0 0 0.5 0"/>
<feBlend mode="normal" in2="BackgroundImageFix" result="effect1_dropShadow_658_2904"/>
<feBlend mode="normal" in="SourceGraphic" in2="effect1_dropShadow_658_2904" result="shape"/>
</filter>
<linearGradient id="paint0_linear_658_2904" x1="43" y1="3.25" x2="95.5" y2="111" gradientUnits="userSpaceOnUse">
<stop stop-color="#D759C3"/>
<stop offset="1" stop-color="#811D9A"/>
</linearGradient>
<linearGradient id="paint1_linear_658_2904" x1="38" y1="16.5" x2="96" y2="103.25" gradientUnits="userSpaceOnUse">
<stop stop-color="#CC53EB"/>
<stop offset="1" stop-color="#88189B"/>
</linearGradient>
<linearGradient id="paint2_linear_658_2904" x1="122.097" y1="54.7844" x2="126.691" y2="64.2125" gradientUnits="userSpaceOnUse">
<stop stop-color="#D759C3"/>
<stop offset="1" stop-color="#811D9A"/>
</linearGradient>
<linearGradient id="paint3_linear_658_2904" x1="3.59688" y1="54.7844" x2="8.19062" y2="64.2125" gradientUnits="userSpaceOnUse">
<stop stop-color="#D759C3"/>
<stop offset="1" stop-color="#811D9A"/>
</linearGradient>
</defs>
</svg>
