<svg width="130" height="120" viewBox="0 0 130 120" fill="none" xmlns="http://www.w3.org/2000/svg">
<circle cx="64.625" cy="60" r="58.5" fill="white" stroke="url(#paint0_linear_658_2913)" stroke-width="3"/>
<circle cx="64.625" cy="60" r="52" fill="url(#paint1_linear_658_2913)"/>
<g filter="url(#filter0_d_658_2913)">
<circle cx="65.125" cy="60" r="38" fill="white"/>
</g>
<circle cx="123.875" cy="59.75" r="3.75" fill="white" stroke="url(#paint2_linear_658_2913)" stroke-width="3"/>
<circle cx="5.375" cy="59.75" r="3.75" fill="white" stroke="url(#paint3_linear_658_2913)" stroke-width="3"/>
<path d="M38.5976 47.544C38.5976 42.4693 39.507 38.4947 41.3256 35.62C43.1736 32.7453 46.2243 31.308 50.4776 31.308C54.731 31.308 57.767 32.7453 59.5856 35.62C61.4336 38.4947 62.3576 42.4693 62.3576 47.544C62.3576 52.648 61.4336 56.652 59.5856 59.556C57.767 62.46 54.731 63.912 50.4776 63.912C46.2243 63.912 43.1736 62.46 41.3256 59.556C39.507 56.652 38.5976 52.648 38.5976 47.544ZM56.2856 47.544C56.2856 45.3733 56.139 43.5547 55.8456 42.088C55.5816 40.592 55.0243 39.3747 54.1736 38.436C53.3523 37.4973 52.1203 37.028 50.4776 37.028C48.835 37.028 47.5883 37.4973 46.7376 38.436C45.9163 39.3747 45.359 40.592 45.0656 42.088C44.8016 43.5547 44.6696 45.3733 44.6696 47.544C44.6696 49.7733 44.8016 51.6507 45.0656 53.176C45.3296 54.672 45.887 55.8893 46.7376 56.828C47.5883 57.7373 48.835 58.192 50.4776 58.192C52.1203 58.192 53.367 57.7373 54.2176 56.828C55.0683 55.8893 55.6256 54.672 55.8896 53.176C56.1536 51.6507 56.2856 49.7733 56.2856 47.544ZM72.4109 47.016C69.4776 45.4907 68.0109 43.1293 68.0109 39.932C68.0109 38.348 68.4069 36.9107 69.1989 35.62C70.0203 34.3 71.2376 33.2587 72.8509 32.496C74.4936 31.704 76.4883 31.308 78.8349 31.308C81.1816 31.308 83.1616 31.704 84.7749 32.496C86.4176 33.2587 87.6349 34.3 88.4269 35.62C89.2483 36.9107 89.6589 38.348 89.6589 39.932C89.6589 41.5453 89.2629 42.968 88.4709 44.2C87.6789 45.4027 86.6229 46.3413 85.3029 47.016C86.9163 47.72 88.1776 48.7467 89.0869 50.096C89.9963 51.4453 90.4509 53.044 90.4509 54.892C90.4509 56.8867 89.9376 58.632 88.9109 60.128C87.9136 61.5947 86.5349 62.724 84.7749 63.516C83.0149 64.308 81.0349 64.704 78.8349 64.704C76.6349 64.704 74.6549 64.308 72.8949 63.516C71.1643 62.724 69.7856 61.5947 68.7589 60.128C67.7616 58.632 67.2629 56.8867 67.2629 54.892C67.2629 53.044 67.7176 51.4453 68.6269 50.096C69.5363 48.7173 70.7976 47.6907 72.4109 47.016ZM83.6749 40.812C83.6749 39.3747 83.2349 38.26 82.3549 37.468C81.5043 36.676 80.3309 36.28 78.8349 36.28C77.3683 36.28 76.1949 36.676 75.3149 37.468C74.4643 38.26 74.0389 39.3893 74.0389 40.856C74.0389 42.176 74.4789 43.232 75.3589 44.024C76.2683 44.816 77.4269 45.212 78.8349 45.212C80.2429 45.212 81.4016 44.816 82.3109 44.024C83.2203 43.2027 83.6749 42.132 83.6749 40.812ZM78.8349 49.7C77.1629 49.7 75.7989 50.1253 74.7429 50.976C73.7163 51.8267 73.2029 53.044 73.2029 54.628C73.2029 56.0947 73.7016 57.2973 74.6989 58.236C75.7256 59.1453 77.1043 59.6 78.8349 59.6C80.5656 59.6 81.9296 59.1307 82.9269 58.192C83.9243 57.2533 84.4229 56.0653 84.4229 54.628C84.4229 53.0733 83.9096 51.8707 82.8829 51.02C81.8563 50.14 80.5069 49.7 78.8349 49.7Z" fill="#2E2E2E"/>
<path d="M46.8689 79.02C46.8689 77.66 47.1822 76.44 47.8089 75.36C48.4489 74.28 49.3089 73.44 50.3889 72.84C51.4822 72.2267 52.6756 71.92 53.9689 71.92C55.4489 71.92 56.7622 72.2867 57.9089 73.02C59.0689 73.74 59.9089 74.7667 60.4289 76.1H57.6889C57.3289 75.3667 56.8289 74.82 56.1889 74.46C55.5489 74.1 54.8089 73.92 53.9689 73.92C53.0489 73.92 52.2289 74.1267 51.5089 74.54C50.7889 74.9533 50.2222 75.5467 49.8089 76.32C49.4089 77.0933 49.2089 77.9933 49.2089 79.02C49.2089 80.0467 49.4089 80.9467 49.8089 81.72C50.2222 82.4933 50.7889 83.0933 51.5089 83.52C52.2289 83.9333 53.0489 84.14 53.9689 84.14C54.8089 84.14 55.5489 83.96 56.1889 83.6C56.8289 83.24 57.3289 82.6933 57.6889 81.96H60.4289C59.9089 83.2933 59.0689 84.32 57.9089 85.04C56.7622 85.76 55.4489 86.12 53.9689 86.12C52.6622 86.12 51.4689 85.82 50.3889 85.22C49.3089 84.6067 48.4489 83.76 47.8089 82.68C47.1822 81.6 46.8689 80.38 46.8689 79.02ZM70.3177 86L67.1177 80.44H65.3777V86H63.0977V72.1H67.8977C68.9643 72.1 69.8643 72.2867 70.5977 72.66C71.3443 73.0333 71.8977 73.5333 72.2577 74.16C72.631 74.7867 72.8177 75.4867 72.8177 76.26C72.8177 77.1667 72.551 77.9933 72.0177 78.74C71.4977 79.4733 70.691 79.9733 69.5977 80.24L73.0377 86H70.3177ZM65.3777 78.62H67.8977C68.751 78.62 69.391 78.4067 69.8177 77.98C70.2577 77.5533 70.4777 76.98 70.4777 76.26C70.4777 75.54 70.2643 74.98 69.8377 74.58C69.411 74.1667 68.7643 73.96 67.8977 73.96H65.3777V78.62ZM78.0144 84.16H82.7144V86H75.7344V72.1H78.0144V84.16Z" fill="#2E2E2E"/>
<defs>
<filter id="filter0_d_658_2913" x="21.125" y="22" width="88" height="92" filterUnits="userSpaceOnUse" color-interpolation-filters="sRGB">
<feFlood flood-opacity="0" result="BackgroundImageFix"/>
<feColorMatrix in="SourceAlpha" type="matrix" values="0 0 0 0 0 0 0 0 0 0 0 0 0 0 0 0 0 0 127 0" result="hardAlpha"/>
<feOffset dy="10"/>
<feGaussianBlur stdDeviation="3"/>
<feComposite in2="hardAlpha" operator="out"/>
<feColorMatrix type="matrix" values="0 0 0 0 0.0714102 0 0 0 0 0.376063 0 0 0 0 0.392756 0 0 0 0.5 0"/>
<feBlend mode="normal" in2="BackgroundImageFix" result="effect1_dropShadow_658_2913"/>
<feBlend mode="normal" in="SourceGraphic" in2="effect1_dropShadow_658_2913" result="shape"/>
</filter>
<linearGradient id="paint0_linear_658_2913" x1="42.875" y1="3.25" x2="95.375" y2="111" gradientUnits="userSpaceOnUse">
<stop stop-color="#59D7B9"/>
<stop offset="1" stop-color="#1C797F"/>
</linearGradient>
<linearGradient id="paint1_linear_658_2913" x1="37.875" y1="16.5" x2="95.875" y2="103.25" gradientUnits="userSpaceOnUse">
<stop stop-color="#67B0B4"/>
<stop offset="0.913352" stop-color="#226B62"/>
</linearGradient>
<linearGradient id="paint2_linear_658_2913" x1="121.972" y1="54.7844" x2="126.566" y2="64.2125" gradientUnits="userSpaceOnUse">
<stop stop-color="#59D7B9"/>
<stop offset="1" stop-color="#1C797F"/>
</linearGradient>
<linearGradient id="paint3_linear_658_2913" x1="3.47188" y1="54.7844" x2="8.06562" y2="64.2125" gradientUnits="userSpaceOnUse">
<stop stop-color="#59D7B9"/>
<stop offset="1" stop-color="#1C797F"/>
</linearGradient>
</defs>
</svg>
