<svg width="129" height="120" viewBox="0 0 129 120" fill="none" xmlns="http://www.w3.org/2000/svg">
<circle cx="64.5" cy="60" r="58.5" fill="white" stroke="url(#paint0_linear_658_2922)" stroke-width="3"/>
<circle cx="64.5" cy="60" r="52" fill="url(#paint1_linear_658_2922)"/>
<g filter="url(#filter0_d_658_2922)">
<circle cx="65" cy="60" r="38" fill="white"/>
</g>
<circle cx="123.75" cy="59.75" r="3.75" fill="white" stroke="url(#paint2_linear_658_2922)" stroke-width="3"/>
<circle cx="5.25" cy="59.75" r="3.75" fill="white" stroke="url(#paint3_linear_658_2922)" stroke-width="3"/>
<path d="M38.8379 47.544C38.8379 42.4693 39.7472 38.4947 41.5659 35.62C43.4139 32.7453 46.4645 31.308 50.7179 31.308C54.9712 31.308 58.0072 32.7453 59.8259 35.62C61.6739 38.4947 62.5979 42.4693 62.5979 47.544C62.5979 52.648 61.6739 56.652 59.8259 59.556C58.0072 62.46 54.9712 63.912 50.7179 63.912C46.4645 63.912 43.4139 62.46 41.5659 59.556C39.7472 56.652 38.8379 52.648 38.8379 47.544ZM56.5259 47.544C56.5259 45.3733 56.3792 43.5547 56.0859 42.088C55.8219 40.592 55.2645 39.3747 54.4139 38.436C53.5925 37.4973 52.3605 37.028 50.7179 37.028C49.0752 37.028 47.8285 37.4973 46.9779 38.436C46.1565 39.3747 45.5992 40.592 45.3059 42.088C45.0419 43.5547 44.9099 45.3733 44.9099 47.544C44.9099 49.7733 45.0419 51.6507 45.3059 53.176C45.5699 54.672 46.1272 55.8893 46.9779 56.828C47.8285 57.7373 49.0752 58.192 50.7179 58.192C52.3605 58.192 53.6072 57.7373 54.4579 56.828C55.3085 55.8893 55.8659 54.672 56.1299 53.176C56.3939 51.6507 56.5259 49.7733 56.5259 47.544ZM74.4112 54.98C74.6458 56.2707 75.1738 57.268 75.9952 57.972C76.8458 58.6467 77.9752 58.984 79.3832 58.984C81.2018 58.984 82.5218 58.236 83.3432 56.74C84.1645 55.2147 84.5752 52.6627 84.5752 49.084C83.9005 50.0227 82.9472 50.756 81.7152 51.284C80.5125 51.812 79.2072 52.076 77.7992 52.076C75.9218 52.076 74.2205 51.6947 72.6952 50.932C71.1992 50.14 70.0112 48.9813 69.1312 47.456C68.2512 45.9013 67.8112 44.024 67.8112 41.824C67.8112 38.568 68.7792 35.9867 70.7152 34.08C72.6512 32.144 75.2912 31.176 78.6352 31.176C82.8005 31.176 85.7338 32.5107 87.4352 35.18C89.1658 37.8493 90.0312 41.868 90.0312 47.236C90.0312 51.0493 89.6938 54.1733 89.0192 56.608C88.3738 59.0427 87.2445 60.8907 85.6312 62.152C84.0472 63.4133 81.8765 64.044 79.1192 64.044C76.9485 64.044 75.1005 63.6333 73.5752 62.812C72.0498 61.9613 70.8765 60.8613 70.0552 59.512C69.2632 58.1333 68.8085 56.6227 68.6912 54.98H74.4112ZM79.0752 47.06C80.6005 47.06 81.8032 46.5907 82.6832 45.652C83.5632 44.7133 84.0032 43.452 84.0032 41.868C84.0032 40.1373 83.5338 38.8027 82.5952 37.864C81.6858 36.896 80.4392 36.412 78.8552 36.412C77.2712 36.412 76.0098 36.9107 75.0712 37.908C74.1618 38.876 73.7072 40.1667 73.7072 41.78C73.7072 43.3347 74.1472 44.6107 75.0272 45.608C75.9365 46.576 77.2858 47.06 79.0752 47.06Z" fill="#2E2E2E"/>
<path d="M46.7439 79.02C46.7439 77.66 47.0572 76.44 47.6839 75.36C48.3239 74.28 49.1839 73.44 50.2639 72.84C51.3572 72.2267 52.5506 71.92 53.8439 71.92C55.3239 71.92 56.6372 72.2867 57.7839 73.02C58.9439 73.74 59.7839 74.7667 60.3039 76.1H57.5639C57.2039 75.3667 56.7039 74.82 56.0639 74.46C55.4239 74.1 54.6839 73.92 53.8439 73.92C52.9239 73.92 52.1039 74.1267 51.3839 74.54C50.6639 74.9533 50.0972 75.5467 49.6839 76.32C49.2839 77.0933 49.0839 77.9933 49.0839 79.02C49.0839 80.0467 49.2839 80.9467 49.6839 81.72C50.0972 82.4933 50.6639 83.0933 51.3839 83.52C52.1039 83.9333 52.9239 84.14 53.8439 84.14C54.6839 84.14 55.4239 83.96 56.0639 83.6C56.7039 83.24 57.2039 82.6933 57.5639 81.96H60.3039C59.7839 83.2933 58.9439 84.32 57.7839 85.04C56.6372 85.76 55.3239 86.12 53.8439 86.12C52.5372 86.12 51.3439 85.82 50.2639 85.22C49.1839 84.6067 48.3239 83.76 47.6839 82.68C47.0572 81.6 46.7439 80.38 46.7439 79.02ZM70.1927 86L66.9927 80.44H65.2527V86H62.9727V72.1H67.7727C68.8393 72.1 69.7393 72.2867 70.4727 72.66C71.2193 73.0333 71.7727 73.5333 72.1327 74.16C72.506 74.7867 72.6927 75.4867 72.6927 76.26C72.6927 77.1667 72.426 77.9933 71.8927 78.74C71.3727 79.4733 70.566 79.9733 69.4727 80.24L72.9127 86H70.1927ZM65.2527 78.62H67.7727C68.626 78.62 69.266 78.4067 69.6927 77.98C70.1327 77.5533 70.3527 76.98 70.3527 76.26C70.3527 75.54 70.1393 74.98 69.7127 74.58C69.286 74.1667 68.6393 73.96 67.7727 73.96H65.2527V78.62ZM77.8894 84.16H82.5894V86H75.6094V72.1H77.8894V84.16Z" fill="#2E2E2E"/>
<defs>
<filter id="filter0_d_658_2922" x="21" y="22" width="88" height="92" filterUnits="userSpaceOnUse" color-interpolation-filters="sRGB">
<feFlood flood-opacity="0" result="BackgroundImageFix"/>
<feColorMatrix in="SourceAlpha" type="matrix" values="0 0 0 0 0 0 0 0 0 0 0 0 0 0 0 0 0 0 127 0" result="hardAlpha"/>
<feOffset dy="10"/>
<feGaussianBlur stdDeviation="3"/>
<feComposite in2="hardAlpha" operator="out"/>
<feColorMatrix type="matrix" values="0 0 0 0 0.268358 0 0 0 0 0.442756 0 0 0 0 0.167207 0 0 0 0.5 0"/>
<feBlend mode="normal" in2="BackgroundImageFix" result="effect1_dropShadow_658_2922"/>
<feBlend mode="normal" in="SourceGraphic" in2="effect1_dropShadow_658_2922" result="shape"/>
</filter>
<linearGradient id="paint0_linear_658_2922" x1="42.75" y1="3.25" x2="95.25" y2="111" gradientUnits="userSpaceOnUse">
<stop stop-color="#81D759"/>
<stop offset="1" stop-color="#357B24"/>
</linearGradient>
<linearGradient id="paint1_linear_658_2922" x1="37.75" y1="16.5" x2="95.75" y2="103.25" gradientUnits="userSpaceOnUse">
<stop stop-color="#80B467"/>
<stop offset="0.913352" stop-color="#456611"/>
</linearGradient>
<linearGradient id="paint2_linear_658_2922" x1="121.847" y1="54.7844" x2="126.441" y2="64.2125" gradientUnits="userSpaceOnUse">
<stop stop-color="#81D759"/>
<stop offset="1" stop-color="#357B24"/>
</linearGradient>
<linearGradient id="paint3_linear_658_2922" x1="3.34688" y1="54.7844" x2="7.94062" y2="64.2125" gradientUnits="userSpaceOnUse">
<stop stop-color="#81D759"/>
<stop offset="1" stop-color="#357B24"/>
</linearGradient>
</defs>
</svg>
